<svg height="60" viewBox="0 0 173 60" width="173" xmlns="http://www.w3.org/2000/svg"><g fill="#fff"><path d="m168.657054 53.1636364c-1.040871-.3272728-1.328008.6181818-2.512448.0727272-2.261204-2.1454545-4.127594-4.5454545-8.65-5.2363636-1.507469-1.4545455-2.799585-3.4909091-4.845436-4.9818182-1.615145-1.2-4.41473-1.4181818-5.168465-3.5636363 1.543361-1.7454546 3.804565-2.2545455 5.993984-2.8727273 5.527386 4.5454545 6.711826 11.8181818 15.720747 14.1454545.323029-2.0727272-4.055809-1.2-2.979046-3.7454545-1.004979-.4363637-1.004979.8727273-2.153527.1818182-3.409751-4.6909091-6.424689-9.6-8.398755-15.2 3.194398 1.6727272 7.932158 2.5818181 8.578216-1.8181819 0-2.290909-3.158507-4.5454545-5.9222-3.4181818-1.399792.6909091-2.297095 2.2181818-4.091701 2.2545455-1.435684-.1818182-1.220332-1.4181818-2.835477-1.4909091-8.65 2.3636364-16.366805 6.3636364-22.073651 13.8545454 1.938174-.2181818 2.799585-3.3454545 5.240249-1.2363636.430705-1.0545454-.825519-1.0545454-.179461-2.2545454 3.660996-2.1454546 7.250207-4.4727273 11.593154-5.4909091-2.009959 1.3818181-1.794606 3.7818181-2.763693 5.6-1.758714 3.3090909-4.486515 4.9090909-7.178424 6.5454545-1.076763.4-2.153527 1.2363636-2.871369 1.8909091-.610166.4727273-1.18444.9454545-1.722822 1.5272727-4.630083 3.3454546-7.321991 3.3090909-7.321991 3.3090909-4.271162-.5090909-3.158506-3.8181818-2.907262-4.4727272 1.220332-1.9272728 4.199378-3.3454546 4.199378-3.3454546 2.763693-1.5272727 4.091701-3.1272727 4.091701-3.1272727 3.840457-5.7454546-.861411-8.6545455-.861411-8.6545455-.287137-.1454545-.394813-.2181818-.646058-.2909091-1.112655-.290909-2.225311-.290909-3.086722-.1454545-1.004979.1818182-1.651037.4727273-2.404771.7636364-1.292117.6545454-2.476556 1.4909091-3.589212 2.5818181-1.112656 1.0545455-2.009959 2.2545455-2.656017 3.5272728-.789626 1.2363636-1.399792 2.5454545-1.830498 3.8909091-.430705 1.3454545-.789626 2.7272727-1.076763 4.0727272-.179461 1.3090909-.287137 2.6181819-.323029 3.9636364-.035892.5454545-.035892 1.0909091-.035892 1.6-1.363901.1090909-2.727801.1454545-4.055809.1818182-1.507469.0363636-2.979046 0-4.486515-.1090909-1.399792-.1090909-2.763693-.3272728-4.163485-.6909091-1.3997929-.3272727-2.6201249-.8363637-3.6609962-1.5272727-1.0408714-.6909091-1.7946058-1.5272728-2.2253112-2.509091-.4307054-1.0181818-.5383818-2.0363636-.2512449-3.1272727v-.5454545c1.1126556.4363636 2.2253113.8 3.373859 1.0909091s2.2970954.5454545 3.4456433.8363636c.789626.1090909 1.579253.1818182 2.368879.2545455.789627.0727272 1.615146.0727272 2.440664 0 .897303-.109091 1.758714-.2909091 2.656017-.5818182.430705-.1090909.861411-.2909091 1.292116-.5454546.430706-.2545454.825519-.6181818 1.220332-1.0545454.789627-.9090909 1.220332-1.9636364 1.328008-3.2.107677-1.0545455-.071784-2.1454546-.574273-3.2727273-.538382-1.0545455-1.328009-1.8909091-2.332988-2.5090909-.933195-.5090909-1.86639-.8363636-2.727801-1.0181818-.897303-.2181818-1.758714-.3272728-2.656016-.2909091-.897303.0363636-1.758714.1090909-2.584233.2181818-1.615145.2181818-3.2302902.6909091-4.9172197 1.4181818-.7896266.4363637-1.543361.9090909-2.2970954 1.3818182-.7537345.4727273-1.4356847 1.0909091-2.0458507 1.8909091-1.2921161 1.4545454-2.0458506 3.2363636-2.3329875 5.3090909-.1076764.9454545-.0717842 1.9272727.0717842 2.9090909.1794606.9818182.5024896 1.8909091 1.0049793 2.7272727.4307054.9090909 1.0408713 1.6727273 1.7587137 2.2909091.7178423.6181818 1.4715767 1.1636364 2.2612033 1.6 1.6151452.8 3.2302904 1.2363637 4.8454357 1.3090909 1.6510371.0727273 3.2302901.0727273 4.7736511-.0363636 1.615146-.2181818 3.158507-.5090909 4.594191-.8727273 1.292116-.3272727 2.584233-.7272727 3.840457-1.2727272 0 .7636363.035892 1.5272727.107676 2.2545454.825519-2.4727273 1.722822-4.9090909 2.691909-7.2363636.969087-2.3636364 2.189419-4.4363637 3.625103-6.2909091.789627-.8363637 1.579254-1.5636364 2.36888-2.1818182.789627-.6181818 1.68693-1.1636364 2.620125-1.6363636.17946-.0363637.430705-.1818182.86141-.2909091l.179461-.0363637c.610166-.1090909.825519-.0363636.825519-.0363636.215352 0 .538381 0 .68195.0727273.358921.1090909.538382.3636363.574274.6181818.035892.2545454-.035892.6181818-.179461.8727273-.215353.4-.753734.6545454-.753734.6545454s-.825519.4363637-3.948133 1.7454546c0 0-7.106639 3.2363636-3.876349 10.0363636 0 0 1.256224 2.2181818 3.05083 2.5818182 0 0 .071784.0363636.215353.0727273.969087.290909 2.835477.4363636 6.245228-.2181819 6.460581-1.2363636 10.767635-1.6727272 12.992946-2 .251245-.0363636.50249-.0727272.753735-.1090909.358921-.0363636.68195-.0727272 1.004979-.1090909 4.091701-.3636363 8.65-1.7090909 11.916182-.9454545 3.517428.8 6.029876 3.2 8.506432 4.4727272 2.727801 1.3818182 5.347925 2.5818182 9.33195 3.9272728-.933195-1.9272728-2.476556-3.4181818-4.091701-4.9090909zm-73.1122407-12.3272728c.3948133-.4.8255187-.7636363 1.3280083-1.0909091.5024896-.3272727 1.0408713-.6545454 1.5792531-.9090909 1.1126556-.6181818 2.3329873-1.0545454 3.6968883-1.2727272 1.3639-.2181819 2.620124-.2545455 3.768672-.0727273 1.112655.1818182 1.86639.5818182 2.225311 1.2727273.215353.3272727.323029.7636363.323029 1.2727272 0 .4363637-.071784.8-.251245 1.0181819-.107676.290909-.466597.5454545-1.040871.8363636s-1.18444.5090909-1.794606.6909091c-.610166.1090909-1.292116.1818182-2.045851.2545454-.753734.0727273-1.471576.1090909-2.189419.1818182-1.112655.0727273-2.2253108.0727273-3.3738585 0s-2.2612033-.1454545-3.3738589-.2545454c.3589211-.8727273.7178423-1.4909091 1.1485477-1.9272728zm52.9408717 6.4363637c-.681951-.0363637-7.824482 1.2363636-10.049793 1.4545454l.071784-.4363636c3.840457-2.2909091 6.532365-5.0545455 6.532365-5.0545455 1.076764.5818182 4.163486 2.1818182 4.163486 2.1818182s.107676 1.8909091-.717842 1.8545455z"/><path d="m50.966805 35.6c-.8255187-1.1272727-1.7587137-2.0727273-2.7995851-2.9090909-1.0408714-.8-2.0458506-1.5636364-3.0149377-2.2181818-1.1126556-.6181818-2.1894191-1.2-3.2661826-1.7818182-1.0767635-.5454546-2.1894191-1.0545455-3.2661826-1.5272727l-3.9840249-1.5272728c1.8663901-.5454545 3.5892116-1.2727272 5.1684647-2.1090909 2.1176349-1.1272727 4.0199171-2.5818182 5.7427386-4.3272727 1.7228216-1.7818182 3.0149378-3.8181818 3.9122407-6.1818182.1076763-.2909091.2153527-.5818182.323029-.8727273.1076764-.290909.2153527-.6181818.3230291-.8727272l.1794606-.5090909.0717842-.4363637c.0717842-.2181818.0717842-.58181815.0717842-1.09090906.1076764-1.56363637-.323029-2.94545455-1.3280083-4.10909091-.933195-1.12727273-2.0099585-1.96363637-3.1585062-2.47272728-1.1485477-.54545454-2.3329875-.98181818-3.4815353-1.38181818-2.4406639-.61818181-4.8454356-.98181818-7.2143153-1.05454545-2.3688797-.07272728-4.7736515-.07272728-7.1425311.03636363-2.3688797.10909091-4.7377594.36363637-7.0707469.72727273-2.3329876.36363637-4.6659751.87272727-6.9630706 1.56363637-1.1485477.32727272-2.3329875.69090909-3.4815352 1.09090909-1.14854774.4-2.29709546.90909091-3.40975106 1.52727272-.53838175.29090909-1.11265561.58181819-1.65103735.87272728s-1.1126556.69090909-1.65103734 1.12727272c-.53838175.43636364-1.07676349.90909091-1.543361 1.41818182s-.93319502 1.16363637-1.36390041 1.92727272c-.17946058.3272727-.32302905.7272727-.46659751 1.2363636-.14356847.4727273-.2153527.9454546-.2153527 1.3818182 0 .4.07178423.8727273.17946058 1.4181818.10767635.109091.14356847.1818182.10767635.2181819-.03589212.0363636 0 .1818181.03589212.4727272.17946058.2909091.25124481.4727273.25124481.5818182.43070539.8.93319502 1.4545455 1.47157676 1.9636364.53838174.5454545 1.04087137.9818182 1.543361 1.3818182 1.1126556.8 2.2253112 1.4545454 3.37385892 1.9636363 1.14854772.5454546 2.26120332 1.0181818 3.37385893 1.4909091 2.3329875.9090909 4.5941909 1.6727273 6.7836099 2.3636364 2.1894191.6909091 4.3788382 1.3818182 6.6041494 2.1090909 2.2253112.6181818 4.4147303 1.2727273 6.6041494 1.9636364 2.0458506.7272727 4.1993776 1.490909 6.2811203 2.3272727 1.0408714.4363636 2.0458507.9090909 3.0508299 1.3454545.9690871.4363637 1.9381743.9818182 2.8713693 1.6 1.9381743 1.1272728 3.5174274 2.4 4.7377593 3.8545455 1.1485478 1.6363636 1.6510374 3.3454545 1.5074689 5.1272727-.1076763.4363636-.2153527.9090909-.323029 1.3818182-.1076764.4727273-.2512448.9454545-.4307054 1.3818182 0 .0727272-.0358921.1454545-.1076764.2909091-.0717842.1454545-.1076763.2545454-.1076763.3636363-.1076764.2181818-.2153527.4363637-.3230291.5818182-.1076763.2181818-.2512448.4363636-.4307054.6181818-.1794605.1818182-.323029.4-.5024896.6181818-1.2921162 1.5636364-2.8713693 2.8727273-4.7736514 3.8545455-1.9022822 1.0181818-3.9122407 1.8181818-6.0298756 2.4363636-2.1176348.6181819-4.2711618 1.0545455-6.496473 1.3454546s-4.4865145.4727273-6.8195021.5818182c-2.2612033.0727272-4.5582987 0-6.819502-.1818182-2.2612034-.1818182-4.5224067-.5090909-6.74771787-1.0181818-1.04087137-.2909091-2.11763486-.5818182-3.15850623-.8727273s-2.0099585-.7272727-2.90726141-1.3090909c-.43070539-.3272727-.78962655-.6909091-1.04087137-1.0545455-.25124481-.3636363-.32302904-.7272727-.21535269-1.0545454.07178423-.4363637.25124481-.8727273.53838174-1.3090909.28713693-.4363637.68195021-.7636364 1.1126556-1.0545455.93319502-.6181818 1.93817427-1.2 2.94315353-1.7090909 1.04087137-.5454545 2.04585062-1.0181818 3.01493776-1.4909091 1.11265564-.4363636 2.22531124-.8727273 3.33796684-1.2727273s2.2253112-.7636363 3.3379668-1.0909091c-2.3329876.509091-4.5941909 1.0545455-6.81950211 1.6727273-2.2253112.6181818-4.37883817 1.5636364-6.49647303 2.8727273-.50248962.3272727-1.00497925.7272727-1.50746888 1.1636364-.50248962.4363636-.82551867 1.0545454-1.00497925 1.8545454-.2153527.7272727-.10767635 1.4909091.32302905 2.2909091.17946058.3272727.35892116.6181818.61016597.8363636.25124481.2181819.50248963.4363637.78962656.6909091 1.00497925.8363637 2.04585062 1.4909091 3.15850622 1.9272728 1.1126556.4363636 2.26120332.8363636 3.40975104 1.1636363 2.33298753.6181818 4.66597513 1.0545455 7.03485473 1.3454546 2.3688797.2909091 4.7018673.4727272 7.0348548.5818181 2.3688797.0727273 4.7736515-.0363636 7.1425311-.2545454 2.3688797-.2181818 4.7377594-.6545455 7.0707469-1.2727273 1.220332-.2909091 2.4047718-.6181818 3.5174274-1.0181818 1.1485477-.4 2.2612033-.8727273 3.3738589-1.4181818 1.1126556-.6181818 2.1894191-1.2727273 3.2661826-2.0363637 1.0767635-.7272727 2.0458506-1.6727272 2.8713693-2.7636363.4307054-.5454546.8255187-1.1272727 1.1485477-1.6727273.1076764-.1090909.1794606-.2545454.2512448-.4363636.0717843-.1818182.1435685-.2909091.2512448-.4363637.1076764-.2181818.1794606-.3636363.2153527-.4727272.0358922-.0727273.1076764-.2545455.2153527-.4727273.287137-.6181818.5024897-1.2363636.7178424-1.8909091.1794605-.6545455.3589211-1.3454545.4665975-2.0727273.1794605-1.4545454.0717842-2.9090909-.3230291-4.3272727-.3589211-1.2-1.0049792-2.4727273-1.86639-3.6zm-21.7506224-11.6727273c-1.3639004-.4363636-2.7278009-.8727272-4.1275934-1.3090909-2.153527-.6909091-4.342946-1.3454545-6.5682572-2.0363636-2.2253113-.6909091-4.3788382-1.4181818-6.4964731-2.1818182-1.0049792-.4363636-2.0099585-.8727273-2.97904562-1.3090909-1.00497926-.4363636-1.86639004-.9090909-2.6560166-1.4909091-.43070539-.2909091-.78962656-.5818182-1.07676348-.9090909-.28713693-.3272727-.46659752-.6181818-.57427386-.8363636-.17946058-.509091-.17946058-.9818182 0-1.4181819.21535269-.6909091.75373444-1.3090909 1.57925311-1.9272727.43070539-.2909091.86141079-.54545454 1.29211618-.83636363s.86141079-.54545454 1.29211618-.83636363c.93319502-.43636364 1.93817429-.87272728 2.97904569-1.27272728 1.0408713-.4 2.1176348-.8 3.1585062-1.16363636 2.1176348-.61818182 4.2711618-1.12727273 6.5323651-1.56363636 2.2612033-.43636364 4.4865145-.76363637 6.6759336-1.05454546 2.2612034-.21818182 4.5224067-.32727273 6.78361-.29090909s4.4506224.29090909 6.6041494.8c1.0408713.21818182 2.0458506.54545455 3.0149377.90909091.9690872.4 1.7228216.94545455 2.2970955 1.67272727.6819502.69090909 1.0049792 1.41818182 1.0049792 2.25454546 0 .43636363-.0717842.94545457-.2153527 1.52727277-.1435684.5454545-.2512448 1.0545454-.3589211 1.5272727-.6819502 2.1454545-1.7228216 4.0727273-3.1943984 5.8181818-1.4715767 1.7454545-3.1585062 3.2363636-5.0966805 4.4727273-1.7587137 1.1636363-3.6968879 2.1090909-5.7427386 2.7636363-1.3997925-.4363636-2.7636929-.8727272-4.1275933-1.3090909z"/><path d="m78.2807054 37.1636364c-.0717842-.3272728-.1794606-.7272728-.3230291-1.1636364-.1076763-.3272727-.2871369-.6909091-.5742738-1.0909091s-.610166-.6545454-1.0049793-.7636364c-.8255186-.3272727-1.5792531-.3636363-2.2970954-.1090909-.6819502.2545455-1.2921162.5454546-1.7946058.8727273.5383817-.1818182 1.1485477-.2545454 1.8304979-.2545454s1.220332.1818181 1.6510374.5818181c.323029.2909091.5383817.6909091.5742738 1.2727273.0717843.5454546 0 1.1636364-.1794606 1.7818182-.1076763 1.2363636-.4665975 2.3272727-1.0408713 3.2727273-.5742739.9454545-1.3280083 1.8545454-2.1894191 2.6909091-.8255187.7272727-1.7587137 1.3818181-2.7278008 1.9636363-1.0049793.5818182-2.0458507 1.0545455-3.1585063 1.3818182s-2.2253112.5454545-3.3379668.5818182c-1.1126556.0727273-2.0458506-.0727273-2.8354772-.3272727-.3948132-.1818182-.7178423-.4-1.0049792-.6909091-.0717842-.0727273-.1076764-.0727273-.1076764-.0727273-.0358921 0-.0717842-.0363636-.1076763-.0727273-.0717842 0-.0717842-.0363636-.0717842-.0727273-.0717843-.0727272-.1076764-.1454545-.1794606-.290909-.0717843-.1454546-.0717843-.2181819 0-.2181819l-.1794606-.1818181c-.3948133-.9454546-.5024896-1.8181819-.323029-2.6181819.1076763-.9454545.4307053-1.8909091 1.0049792-2.8727272.5383818-.9454546 1.220332-1.8909091 2.0099585-2.7636364 1.0049793-.8363636 1.9381743-1.6 2.8354772-2.2545455 1.1485477-.7272727 2.1894191-1.2 3.086722-1.4181818 1.2562241-.1818182 2.2253112.1090909 2.8354772.8363637.323029.4363636.5742738.9818181.7178423 1.6363636s.1435685 1.3090909.0358921 1.9636364c.2871369-.6181819.4665975-1.2727273.5742739-1.9636364.1076763-.6909091.0358921-1.4545455-.2512449-2.2181818-.1076763-.4-.323029-.7636364-.6101659-1.0909091-.3230291-.3272727-.6460581-.5818182-1.0408714-.7636364-.610166-.2909091-1.3997925-.4727272-2.3329875-.5818182-1.543361 0-2.9790457.3272728-4.307054 1.0181819s-2.5483402 1.4181818-3.6609958 2.1818181c-1.1126556.9454546-2.153527 2.0363637-3.1585063 3.2-.4307054.6909091-.8255186 1.3454546-1.1485477 2.0727273-.323029.6909091-.5742738 1.4909091-.7537344 2.3272727-.4307054 1.7454546-.2512448 3.4909091.5742738 5.309091.0717843.0727272.1076764.1090909.1076764.2181818.0358921.0727272.1076763.1454545.2153527.2181818l.1794606.4363636.1794605.2545455c.2153527.3272727.5383818.7636363.8973029 1.2727273.3948133.290909.7537345.5454545 1.1126557.8.3589211.2545454.7537344.4363636 1.2203319.5454545 1.6510373.6909091 3.2661826.9090909 4.8454357.7636364 1.5792531-.1818182 3.0508299-.5090909 4.4506224-1.0181819 1.3997925-.5090909 2.6560166-1.2 3.8763485-2.1090909 1.1844399-.9090909 2.2612034-1.8909091 3.1943984-3.0181818.8973029-1.0181818 1.6151452-2.2545454 2.2253112-3.7818182.5383817-1.4181818.7896265-2.8727272.6819502-4.4727272-.1076764-.5090909-.1794606-.8727273-.2153527-1.2z"/><path d="m82.5159751 47.0909091c-.1794606-1.2727273-.0358921-2.6545455.4307054-4.0363636.2153527-.7272728.4665975-1.4545455.7178423-2.1454546s.5383818-1.3818182.8614108-2.0727273c1.3280083-2.7636363 2.8713693-5.3818181 4.5941909-7.9272727 1.7587137-2.5090909 3.5892116-4.9454545 5.5273859-7.2363636.5024896-.5454546 1.0049792-1.0909091 1.543361-1.6363637.5383817-.5454545 1.0408713-1.0545454 1.543361-1.5636363.2871369-.2181818.5383817-.4363637.7896265-.5818182.2512448-.1818182.5024896-.3272727.7896266-.5090909h.0717842c.1076764.4.1076764.7636363 0 1.0909091-.1794606 1.3454545-.5742738 2.6181818-1.2562241 3.7818182-.7178423 1.3090909-1.543361 2.5454545-2.4406639 3.7818181-.8973029 1.2363637-1.9381742 2.4-3.0149377 3.5272728-1.0049793 1.1636363-2.0817428 2.2909091-3.2302905 3.3818181-1.1485477 1.0545455-2.3688796 2.1454546-3.5892116 3.2727273 1.543361-.6909091 3.0149378-1.4181818 4.3788382-2.2181818s2.6919087-1.7090909 4.019917-2.6545455c1.3280083-.9454545 2.6201245-2 3.8045643-3.1272727 1.220332-1.1272727 2.3329876-2.4363636 3.3379666-3.9636363.50249-.6909091.969087-1.4181819 1.363901-2.2545455.430705-.8363636.717842-1.7454545.86141-2.6909091.179461-.8363636.179461-1.8545454.071785-3.0181818 0-.1090909 0-.2545455-.035892-.3636364-.035893-.1454545-.035893-.2909091-.035893-.4727272l-.071784-.4363637c-.071784-.0727273-.071784-.1454545-.071784-.2545454s-.071784-.2181819-.179461-.3272728c-.107676-.2181818-.251244-.4363636-.358921-.6181818-.143568-.1818182-.323029-.4-.538382-.6181818-.215352-.2181818-.430705-.3636364-.68195-.4727273-.215352-.0727272-.466597-.1818182-.753734-.2909091-.538382-.1090909-1.0408715-.1454545-1.3997927-.0727272-.3948133.0727272-.7896266.1454545-1.1485477.2545454-.5383818.1818182-1.0049793.4-1.3280083.6909091-1.0408714.5090909-1.830498 1.0545455-2.3329876 1.6727273-.7178423.5454545-1.3639004 1.1272727-1.9381743 1.6727273-.5742738.5454545-1.1485477 1.1636363-1.6869294 1.7818181-4.3788382 5.0545455-7.716805 10.7272728-10.0497925 17.0181819-.610166 1.5636363-1.0049793 3.2363636-1.1485478 4.9818181-.1076763.9090909-.1794605 1.7818182-.1794605 2.6545455s.1435684 1.7818182.4307054 2.7272727c.3948132.9454546.9690871 1.7454546 1.7587136 2.3636364.3230291.3272727.7178424.6181818 1.1126556.8363636.4307054.2181818.8614108.4 1.2921162.5090909 1.7228216.2181818 3.3379668.0727273 4.9172199-.4363636-1.6151452 0-3.0867219-.2909091-4.4147302-.9090909-1.4715768-.8-2.2253112-1.8181818-2.3329876-3.0909091z"/></g></svg>