<svg height="131" viewBox="0 0 266 131" width="266" xmlns="http://www.w3.org/2000/svg"><g fill="none" fill-rule="evenodd"><g fill="#fff"><path d="m228.320882 71.6094071c-1.049286-.0825359-12.074607 1.8852204-15.470763 2.2132947l.096101-.6676439c5.910165-3.5026015 10.072824-7.660892 10.072824-7.660892 1.674628.904446 6.38331 3.2970666 6.38331 3.2970666s.220249 2.9195627-1.081472 2.8181746m-81.479226-9.7613034c.595914-.5959136 1.279651-1.151134 2.047073-1.6633621.767423-.5115385 1.576459-.9800847 2.430785-1.407478 1.704975-.9368626 3.601921-1.5769179 5.693136-1.9180968 2.088686-.3400294 4.030003-.3841711 5.821193-.1285168 1.704285.2558841 2.855419.8959395 3.453402 1.9192463.340029.5110786.511538 1.1515938.511538 1.9190164 0 .6832774-.127137 1.1950458-.383711 1.5350752-.171509.4278531-.703739.853637-1.598529 1.2789611-.89525.4285428-1.812801.7674227-2.750813 1.0237666-.939391.1721988-1.98224.2995662-3.134523.3837114-1.151594.0864442-2.282726.1717389-3.389719.2558841-1.707044.0857546-3.434549.0857546-5.182057 0-1.748657-.0841452-3.475702-.2122022-5.180447-.3841711.425324-1.1927467.978935-2.130299 1.662672-2.8140363m112.539381 18.7590925c-1.602437-.5106188-2.053051.9644512-3.84401.1298963-3.489957-3.2434987-6.329283-6.8982973-13.329888-7.9629871-2.328937-2.1960518-4.319913-5.3317251-7.432826-7.566401-2.503665-1.8003855-6.787023-2.1307589-7.943445-5.4418496 2.378826-2.6627589 5.849011-3.4382282 9.230912-4.3702628 8.504184 6.8959983 10.322732 17.9413207 24.218185 21.4968004.491997-3.1614227-6.241918-1.8376301-4.611892-5.7071599-1.551859-.6701729-1.551859 1.3302299-3.331323.2671495-5.244131-7.1213051-9.897407-14.6028712-12.93675-23.0868228 4.926863 2.5268851 12.23554 3.9111426 13.20344-2.778401-.022991-3.4609888-4.871685-6.9079534-9.099637-5.1799879-2.142714 1.0637701-3.556629 3.3920173-6.283302 3.4476542-2.202489-.2843923-1.88522-2.1388055-4.356698-2.2569766-13.309656 3.6012308-25.178038 9.6900328-33.982937 21.0721659 2.986465-.3308332 4.295774-5.095153 8.07679-1.8537234.654309-1.6063457-1.28264-1.6100242-.253585-3.4488038 5.662558-3.2602818 11.149469-6.8242679 17.823839-8.3473881-3.069231 2.0806396-2.7561 5.7331392-4.235998 8.4894693-2.70989 5.0438842-6.903815 7.4682317-11.034057 9.9523544-1.64428.6048799-3.28925 1.8737252-4.424291 2.8797891-.932494.6933933-1.827514 1.4495506-2.665058 2.3001988-7.122224 5.1091772-11.254535 5.0422749-11.254535 5.0422749-6.569764-.7729404-4.867088-5.7839482-4.462685-6.7752982 1.860161-2.9427831 6.461478-5.0864166 6.461478-5.0864166 4.249563-2.299739 6.309511-4.7645497 6.309511-4.7645497 5.92327-8.7559291-1.336667-13.1413656-1.336667-13.1413656-.426474-.2126621-.587867-.3335921-1.012962-.423255-1.707044-.447395-3.444435-.4565912-4.742938-.2319741-1.538524.266-2.516539.6950026-3.709746 1.1419378-1.963388.9876716-3.79619 2.2845653-5.500475 3.8966586-1.707044 1.6125532-3.070841 3.4060415-4.094147 5.3747174-1.195966 1.881312-2.132828 3.8527467-2.814496 5.9129248-.683738 2.0615575-1.237579 4.1215056-1.663363 6.1809939-.255654 1.9714348-.427393 3.9872412-.511538 6.0467295-.033566.8191513-.041153 1.6369231-.034486 2.4549248-2.110757.1397822-4.192316.2358825-6.234562.2735869-2.302957.0439118-4.605685-.0204616-6.907953-.1919706-2.133518-.1705895-4.266346-.5122282-6.397104-1.0237667-2.132828-.5117683-4.009772-1.2796508-5.629453-2.3034174-1.620599-1.022847-2.772423-2.302268-3.453401-3.837803-.684427-1.5348453-.811795-3.1124529-.384401-4.7330527v-.8959395c1.704974.6837373 3.43248 1.238038 5.181597 1.6633622 1.746358.427853 3.517775.8531771 5.308505 1.279191 1.193666.1719689 2.409633.3004857 3.646522.3841711 1.235509.0852947 2.495158.0852947 3.774119 0 1.363796-.1701296 2.728741-.4678565 4.093457-.8952498.681668-.1701296 1.343335-.4480847 1.98293-.8322558.640055-.3832515 1.25758-.9154814 1.854873-1.5992187 1.194356-1.3631063 1.875564-2.983936 2.047533-4.8608799.17013-1.6196802-.127827-3.2823526-.89525-4.9900864-.853866-1.6194503-2.047073-2.8981815-3.582378-3.8378029-1.45185-.7674227-2.858868-1.2794209-4.221514-1.5348453-1.365406-.3400294-2.731501-.4899274-4.093687-.4478548-1.365866.0441417-2.686899.1501279-3.96609.3195678-2.475617.3420986-4.990087 1.0679084-7.548699 2.1749006-1.194816.6837373-2.366411 1.3879361-3.517545 2.111217-1.151824.72535-2.197201 1.6849732-3.134524 2.8781798-1.963388 2.2185825-3.156824 4.9052515-3.582608 8.059777-.171509 1.4511599-.127368 2.9223215.128517 4.4141746.255884 1.4927726.767422 2.8781797 1.534845 4.1576007.681668 1.3649455 1.577607 2.5167692 2.686669 3.4545514 1.107452.9396214 2.258586 1.748197 3.454551 2.430325 2.472168 1.1948159 4.967326 1.8548729 7.483176 1.9829299 2.51516.1271375 4.968015.1073656 7.356498-.0639135 2.472857-.3397995 4.839498-.7878842 7.100383-1.3437943 1.987528-.4871686 3.959193-1.1322818 5.915914-1.9180968.015174 1.1513639.065983 2.3018081.161393 3.4529421 1.279651-3.7626241 2.664598-7.4346655 4.157831-11.0186534 1.491163-3.5819188 3.346036-6.7635731 5.565308-9.5408246 1.193207-1.2536716 2.408484-2.3512377 3.645603-3.2920086 1.235279-.940771 2.578613-1.7675091 4.029773-2.4852723.296807-.0777079.681668-.2887606 1.325632-.4577407l.257264-.0340259c.933644-.1687502 1.266776-.0818462 1.266776-.0818462.33842-.0027588.815932.0181625 1.047447.0954106.572003.1905912.830646.529471.879616.9391616.04874.4018738-.050119.9249075-.276116 1.3157459-.348766.6032705-1.143087.9844529-1.143087.9844529s-1.291606.6409749-6.055926 2.6367796c0 0-10.944854 4.8928366-5.971091 15.2564909 0 0 1.9358 3.3731651 4.711442 3.9359724 0 0 .134954.0395436.346467.0924217 1.512774.4322213 4.35164.6545394 9.601059-.3411789 9.950745-1.8868297 16.554535-2.5494157 19.99874-3.0660121.397736-.0600052.77501-.1241486 1.135041-.191051.537518-.050809 1.057792-.0977096 1.542892-.1386326 6.276634-.5326898 13.32276-2.6013743 18.332389-1.4474815 5.393569 1.2428661 9.262869 4.8491547 13.074693 6.7716197 4.204961 2.1185739 8.244391 3.9024063 14.352964 5.9731599-1.535764-2.8009317-3.926776-5.0730821-6.40745-7.2960328"/><path d="m44.7123699 36.1587571c-2.0905255-.6395955-4.2015125-1.2996525-6.3325013-1.9822402-3.3262645-1.0237667-6.6964408-2.0470735-10.1068504-3.0708401-3.412249-1.0237667-6.7382835-2.1312187-9.9787935-3.3260346-1.5348453-.6816681-3.0706102-1.3428747-4.6054555-1.98293-1.5353051-.6400553-2.9002506-1.3854071-4.09368709-2.2385843-.68396716-.4264736-1.23757822-.8959395-1.66313224-1.4074779-.42808297-.5117684-.72580985-.9380121-.8959395-1.2796509-.25542437-.7678824-.25542437-1.4911633 0-2.1744408.34002939-1.0233068 1.15136387-2.0027018 2.43078479-2.9423232.68166814-.4264736 1.34356444-.8522576 1.98315994-1.2796508.6395955-.425784 1.2994226-.8511081 1.9829299-1.2796509 1.4495506-.6809783 2.9846258-1.3212636 4.6052256-1.9185566 1.6194503-.5952238 3.24051-1.1943561 4.8615696-1.79118925 3.24028-.93755229 6.5890752-1.72658599 10.0429369-2.36710112 3.4540916-.6391357 6.8861124-1.1711357 10.2985912-1.59852895 3.4959343-.34002939 6.9723267-.49015731 10.4264183-.44808471 3.4543215.04437166 6.8444996.44808471 10.1705342 1.21550735 1.6189905.34209853 3.1765963.81110458 4.669369 1.40747796 1.4913933.597293 2.6652878 1.45070009 3.518465 2.55815212 1.0235367 1.0237666 1.5353051 2.1749006 1.5353051 3.4538617 0 .684427-.1082852 1.4518496-.3204875 2.3029577-.2133517.8538669-.4053223 1.6217493-.5752221 2.3029576-1.0235367 3.2423492-2.6666672 6.1846724-4.9254831 8.8269698-2.261115 2.6445963-4.8831807 4.9059412-7.8675765 6.7808159-2.7305808 1.7911892-5.6729041 3.1986672-8.8274296 4.221974-2.132828-.6812083-4.243815-1.3433345-6.3327312-1.9833898m33.4539257 17.7190026c-1.2787312-1.704745-2.70828-3.1765963-4.2854278-4.4134849-1.5787572-1.2352791-3.134064-2.3671011-4.6693691-3.3904079-1.707274-.9373224-3.390178-1.8328021-5.0530804-2.6864391-1.663592-.8522575-3.3487951-1.6192204-5.0535402-2.3029576l-6.1409905-2.3027278c2.8984114-.8517977 5.5430078-1.9192463 7.9319499-3.1982074 3.24051-1.7054347 6.1828332-3.9021763 8.8274296-6.5886154 2.6422973-2.686669 4.6472982-5.8211927 6.0129334-9.4031115.1698998-.4257839.3400294-.8731789.5113086-1.3431046.1701296-.4680864.3397995-.9154814.5122282-1.3440242l.256114-.7674226.1269076-.6389058c.084605-.3400294.1282869-.8959395.1282869-1.6633621.1698997-2.3864132-.5113085-4.47785829-2.0470735-6.26835786-1.4509299-1.70497493-3.0699204-2.96255488-4.8613396-3.77480899-1.7909594-.80949524-3.5819188-1.51254451-5.3726483-2.11052722-3.7541175-.93686258-7.464783-1.47116163-11.1303872-1.59921867-3.6681331-.12782714-7.3358064-.10621608-11.00256.06368366-3.6679032.17219879-7.2916647.53383924-10.8740433 1.08745031-3.5819187.55591011-7.1640674 1.34379429-10.746216 2.36664131-1.7907295.51199827-3.5821487 1.06790838-5.3731081 1.66382195-1.7911892.59798272-3.5403059 1.36540536-5.245051 2.30295765-.85363695.42739326-1.70750385.87478825-2.5590717 1.34310458-.85340708.46969577-1.70727398 1.04491789-2.55838202 1.72704578-.85340709.6832775-1.64313051 1.4065584-2.36710112 2.1749006-.72557995.7676526-1.42908902 1.7491167-2.11029732 2.9425532-.25588418.5115385-.49199654 1.1306724-.70419879 1.8548729-.21335177.7253501-.31956785 1.4290891-.31956785 2.1107572 0 .597293.08437511 1.3233327.25565428 2.1749006.16989974.171509.23404321.2774952.19197061.3195678-.04414174.0441418-.02207087.2784149.06414348.7030493.25611409.4285428.38394122.7264996.38394122.8959395.68143821 1.1955056 1.42678998 2.1972014 2.23835437 3.0066966.81018496.8115644 1.59944857 1.5153034 2.36710112 2.1107571 1.70497494 1.1952758 3.43248056 2.1969715 5.18136732 3.0064668 1.7468176.8117943 3.4736335 1.5576058 5.1811374 2.239274 3.5823786 1.3649455 7.0564719 2.5581521 10.4266483 3.581229 3.3681071 1.0239965 6.7582852 2.0914451 10.1705341 3.1988971 3.4099499.9396215 6.8003578 1.9406275 10.1703042 3.006007 3.368567 1.0681382 6.6727606 2.2392739 9.91465 3.518235 1.6194503.6837373 3.1763665 1.3654054 4.6700588 2.0466137 1.4909334.6837373 2.9623249 1.4936923 4.4134848 2.4312446 2.984166 1.7070441 5.4151807 3.6676733 7.2923544 5.8848764 1.7907295 2.4749265 2.558382 5.0751513 2.3022679 7.8038928-.1712791.6837373-.3416387 1.3879361-.5115384 2.111217-.1719689.72535-.3841712 1.4283993-.6393656 2.1100674 0 .0869041-.0639136.2365722-.1922005.4480847-.1278272.2142714-.1917407.406242-.1917407.5763716-.1719689.340949-.3418687.6389058-.5113086.8952498-.1721988.3411789-.384401.6612066-.6400553.9596232-.2561141.2988764-.5117684.6189041-.7678825.9589334-1.9626983 2.3887122-4.4134848 4.3500312-7.3558081 5.8848764-2.9427831 1.5348453-6.0345445 2.7724236-9.2748245 3.7097459-3.2425791.9396215-6.5686137 1.6217494-9.9792533 2.0470735-3.4124788.428083-6.9079533.72535-10.4905618.8954797-3.4980034.0862143-6.9937078 0-10.490102-.2554244-3.4982333-.2556543-6.9525549-.7674226-10.3622748-1.5353051-1.6217494-.4257839-3.2425791-.8731789-4.86133969-1.3433345-1.62174935-.4673967-3.11452204-1.1290631-4.47808816-1.9833898-.68373725-.5110786-1.21550735-1.0433085-1.59898876-1.5985289-.38371133-.553841-.49199655-1.0874503-.32002766-1.5992187.0841452-.6821279.36210026-1.3431046.83156612-1.9827001.46785652-.6400553 1.04330855-1.1711357 1.7270458-1.5996785 1.44932066-.9373223 2.96255489-1.8107312 4.54177183-2.6222955 1.57691792-.8094953 3.13452372-1.5555368 4.66936902-2.239274 1.7047451-.6816681 3.4104097-1.3210337 5.1176837-1.9185566 1.7045151-.5956837 3.4099499-1.1515938 5.1172239-1.6626725-3.5826085.7674227-7.080612 1.6205999-10.4907917 2.5579222-3.4120191.9396215-6.73851344 2.3894019-9.97902338 4.3500312-.76719274.5115384-1.53484529 1.1090613-2.30249784 1.7907294-.76719274.6837373-1.27919101 1.6212896-1.5353051 2.8144961-.34140882 1.1095212-.17127917 2.261115.51222818 3.4545515.25588418.5122281.57522212.9396214.95916335 1.2794209.38371132.3416387.78742437.6839671 1.21573725 1.022847 1.53484529 1.2796508 3.1545255 2.2613449 4.86133967 2.943013 1.70474503.6837372 3.45386167 1.2789611 5.24482107 1.7911892 3.5826085.938472 7.1842991 1.6185307 10.8103596 2.0463838 3.6242212.4260138 7.227981.7244304 10.8101296.8959395 3.6665238.0836854 7.3341971-.0441418 11.0023302-.3841711 3.6665237-.3416388 7.2921244-.9812343 10.8740432-1.9185567 1.8755644-.4264736 3.6885946-.9370924 5.4377113-1.5359948 1.7468177-.5954537 3.4736336-1.3208038 5.1813673-2.1739809 1.7047451-.9373224 3.3897183-1.961319 5.0528505-3.0703803 1.6631323-1.1079119 3.1342939-2.51493 4.4137148-4.2217442.6814382-.8517978 1.2794209-1.7049749 1.7909594-2.5593017.1701296-.1701296.2979568-.3837113.3839412-.6395955.0843751-.2551944.2122023-.4673967.3839412-.6395955.1696699-.3400293.275656-.5756819.3195679-.7030492.0420726-.1280571.1480588-.3623302.3200276-.7044287.4253242-.9373224.7874244-1.8969456 1.0876802-2.8781798.2972671-.9800847.5315402-2.0247727.7032792-3.1345238.2561141-2.2165134.0841452-4.413025-.5117683-6.5879256-.5977529-2.1749006-1.579217-4.1146085-2.9427831-5.8211928"/><path d="m120.216137 56.273599c-.085755-.5122282-.255195-1.1074521-.511079-1.7907295-.172659-.5119983-.469466-1.0653794-.89594-1.663822-.427853-.5959135-.939621-.9789351-1.535994-1.1506741-1.278502-.5119983-2.451707-.5763717-3.517316-.1919706-1.067908.3837113-1.98293.8315661-2.750582 1.3426447.851338-.2558841 1.790959-.3832515 2.814496-.3832515 1.023536 0 1.874874.2995661 2.558612.8954797.511768.4273933.809495 1.0674486.89479 1.9190164.084375.8534071 0 1.7491167-.254735 2.6862092-.172429 1.8769438-.704199 3.5396162-1.599679 4.9893967-.895479 1.4511599-2.026841 2.8149559-3.389948 4.0946068-1.279421 1.1095211-2.687128 2.1100674-4.221744 3.0055471-1.534845.8959395-3.156594 1.5996784-4.861569 2.1116767-1.707045.5110787-3.4124793.8113345-5.1172243.8954797-1.7070441.0857545-3.1563647-.0841452-4.3495713-.5122282-.5979827-.2558842-1.1095212-.5959135-1.5353051-1.0237666-.0859844-.0836854-.1501279-.1278272-.1919706-.1278272-.0443716 0-.1080553-.0423025-.1922005-.1273673-.0852947 0-.1273673-.0423025-.1273673-.1285168-.0862144-.0836854-.1721988-.2331236-.2561141-.447395-.0859845-.2126621-.0859845-.3200277 0-.3200277l-.2561141-.2558842c-.5975229-1.4495505-.7671928-2.7708141-.5113086-3.96563.1698998-1.4490908.6814382-2.8986414 1.5350752-4.3498013.8511081-1.4490907 1.8748747-2.8565687 3.0703803-4.221974 1.5348453-1.279191 2.984166-2.430325 4.3498012-3.4540916 1.7914192-1.1074521 3.3681072-1.8328021 4.7335122-2.1749006 1.960859-.2554244 3.40995.1721987 4.349572 1.2796508.511768.6837372.873638 1.5148435 1.08745 2.4949282.211742.9805445.233813 1.9822403.063684 3.0055471.426013-.9375522.72397-1.9385583.895479-3.0055471.17013-1.0660691.042303-2.195592-.383251-3.3904079-.172199-.5959136-.491997-1.1515938-.959623-1.663822-.470156-.5110786-1.003305-.8954797-1.599449-1.1506741-.939621-.4257839-2.132828-.7242005-3.582149-.8959395-2.388712 0-4.6052252.5117683-6.6522986 1.535535-2.0466137 1.0233068-3.9237874 2.132828-5.6292222 3.3260346-1.707274 1.4513898-3.3260345 3.0699204-4.8611097 4.8615695-.6837373 1.0237667-1.279421 2.0691444-1.7914192 3.1333743-.5113086 1.0681383-.8952498 2.2397338-1.1513639 3.5189248-.6835073 2.6448263-.3834814 5.3310354.8957096 8.0602368.0836854.0857545.1478289.1922005.1917407.3188781.0420726.1285169.1480588.2363423.3200277.3200277l.2558841.6395955.2556543.3841711c.3400294.5122282.8099551 1.1518237 1.4077079 1.9185566.5952238.428083 1.1713656.8317961 1.7268159 1.2159672.553841.3837113 1.1713656.6616664 1.8548729.8311063 2.5588419 1.0237666 5.0533103 1.4077079 7.484325 1.1518237 2.4305545-.256344 4.7114415-.7674227 6.8444995-1.535535 2.130759-.7674227 4.113919-1.8328021 5.94856-3.1975177 1.833032-1.3637961 3.474093-2.8988713 4.925483-4.6063751 1.362877-1.5353051 2.51447-3.4534019 3.454092-5.7568194.851108-2.1312187 1.193206-4.391414 1.023307-6.780586-.085985-.5954538-.172199-1.1506742-.255884-1.6629023"/><path d="m126.76084 71.355822c-.255884-1.9606293-.043682-4.0077027.640055-6.1405307.33888-1.1081418.70328-2.1949024 1.087451-3.2618911.383711-1.0653795.831566-2.1114469 1.342644-3.1345238 2.047074-4.1778323 4.414175-8.1876041 7.100844-12.0258669 2.686669-3.8378029 5.520937-7.5040968 8.507172-11.0023302.767883-.8515678 1.554847-1.6826741 2.367101-2.4944684.808806-.8099551 1.598529-1.5994486 2.367101-2.3668712.425095-.3400294.831107-.6391357 1.214128-.8954797.383712-.256344.788574-.5122282 1.215967-.7678825h.127828c.170129.5979827.170129 1.1515938 0 1.6633622-.256115 2.0468435-.89525 3.96563-1.919017 5.7572791-1.109521 1.9622386-2.367101 3.8814849-3.774119 5.7563596-1.407018 1.8771737-2.964394 3.668363-4.669369 5.373108-1.535305 1.7907295-3.198208 3.4977736-4.988937 5.1174538-1.791649 1.6212895-3.62675 3.283962-5.501625 4.9898565 2.386643-1.0237666 4.626377-2.1528297 6.715983-3.3908677 2.089606-1.2352792 4.15829-2.5781539 6.204904-4.0297736 2.046843-1.4490908 4.008162-3.0266984 5.884646-4.7337424 1.875565-1.7042853 3.583069-3.7097459 5.117914-6.0124737.767422-1.0233068 1.471161-2.1751305 2.111217-3.4540916.639595-1.279191 1.08745-2.6422973 1.342874-4.0936871.255885-1.2794209.297957-2.8142662.127828-4.6061452 0-.1694399-.022071-.3616405-.064144-.575452-.043222-.2115126-.063684-.4478548-.063684-.703739l-.127367-.6393656c-.086444-.0836854-.128057-.2122023-.128057-.3837113 0-.16944-.086214-.3395696-.256344-.5117684-.171969-.3400294-.36371-.6593673-.575682-.9596232-.213811-.2977269-.491767-.6172947-.831796-.9593932-.340949-.3400294-.683277-.5754521-1.023077-.7032792-.341639-.1285169-.72604-.2763457-1.150674-.4485445-.854327-.1696716-1.579677-.2115126-2.17559-.128287-.597983.0866742-1.195276.2147312-1.79119.384631-.852717.2558842-1.534845.5975229-2.046613 1.022847-1.62175.7674226-2.813807 1.6217493-3.582839 2.5590717-1.109751.8538669-2.110297 1.7077338-3.005547 2.5581521-.895939.8543268-1.771877 1.7498064-2.622985 2.6871288-6.738513 7.6756059-11.89735 16.2917528-15.479269 25.8426932-.940311 2.389172-1.535995 4.9050216-1.791879 7.5475488-.171509 1.3654054-.255194 2.7091997-.255194 4.0297736 0 1.3237926.211972 2.7087398.639595 4.1578306.595684 1.4516197 1.491623 2.6443664 2.685979 3.5823785.512229.5115385 1.087451.9396215 1.727506 1.2796509.639596.3416387 1.298963.597293 1.98293.7674226 2.642297.3420985 5.159297.1278272 7.547549-.6400553-2.474007 0-4.732593-.4673967-6.780126-1.4070182-2.133058-1.1079118-3.284192-2.6427571-3.454092-4.6056853"/><path d="m82.4898876 98.2896439-2.1946724-8.5961452h1.1807917l1.0267554 4.3491115c.2568038 1.0715869.4878583 2.142484.6418946 2.9717511h.0255194c.1411616-.8545566.4106102-1.8748747.7058081-2.984166l1.1552723-4.3366966h1.167917l1.0525048 4.3619862c.2436992 1.020318.4747537 2.0401763.6030406 2.9460017h.0257494c.1795557-.9439896.4234848-1.9003941.6929334-2.9712913l1.1423976-4.3366966h1.1421677l-2.4512464 8.5961452h-1.167917l-1.0911288-4.4767087c-.2694486-1.0968764-.4492342-1.9385584-.5646465-2.8059897h-.0257493c-.1540363.8545567-.3464668 1.6966984-.6671841 2.8059897l-1.2322904 4.4767087z"/><path d="m97.5525687 92.1169265h1.1295229v6.1727174h-1.1295229zm1.2578099-1.7348625c.0128746.3830216-.2696785.689025-.7189127.689025-.3977356 0-.6798289-.3060034-.6798289-.689025 0-.3949767.294968-.70144.7058081-.70144.423255 0 .6929335.3064633.6929335.70144z"/><path d="m106.067787 93.7876456c0-.6379861-.012874-1.16056-.051498-1.6707191h1.001006l.064373 1.0203181h.025749c.308073-.5867174 1.026756-1.1610199 2.053511-1.1610199.859845 0 2.194673.510389 2.194673 2.6275834v3.6858358h-1.129293v-3.5580086c0-.9952585-.372446-1.8242956-1.437596-1.8242956-.744432 0-1.322183.5230337-1.514384 1.1481452-.051498.1400121-.077018.331293-.077018.5225739v3.7115851h-1.129523z"/><path d="m122.732906 94.604038c.012874-.7143146-.295198-1.8238358-1.565883-1.8238358-1.142167 0-1.64267 1.0458376-1.732333 1.8238358zm-3.311321.8032878c.025749 1.5178324 1.001236 2.142714 2.130529 2.142714.808576 0 1.296434-.1400121 1.719919-.3188782l.19266.8037476c-.398195.1784063-1.078024.3825618-2.066615.3825618-1.912349 0-3.054517-1.249993-3.054517-3.111993s1.103773-3.3290234 2.913585-3.3290234c2.027762 0 2.566659 1.7730268 2.566659 2.9082973 0 .2294452-.02552.4078514-.038394.5225739z"/><path d="m130.60692 97.1421884c.333592.2165705.923988.4460156 1.489094.4460156.82145 0 1.205851-.4078514 1.205851-.9180104 0-.5361383-.320487-.8290372-1.154812-1.1352705-1.116419-.3954365-1.642671-1.0074434-1.642671-1.7470476 0-.9952584.808346-1.8114209 2.143174-1.8114209.62902 0 1.180562.1788661 1.527488.3830216l-.282323.8161625c-.243929-.1528868-.693164-.3570423-1.270455-.3570423-.667874 0-1.04009.3825618-1.04009.841452 0 .5103889.372216.7398341 1.181252 1.0458375 1.077794.4083112 1.629796.9439896 1.629796 1.862 0 1.0840017-.8472 1.8495851-2.323189 1.8495851-.680289 0-1.309309-.1659913-1.745439-.420726z"/><path d="m153.255774 95.1394866c-1.232291-.0252895-2.631262.1912809-2.631262 1.3900052 0 .7274192.487628 1.0715869 1.065379 1.0715869.808576 0 1.321953-.5101591 1.501279-1.0331928.038854-.1149525.064604-.2420899.064604-.3572722zm.166451 3.1501573-.089433-.7779983h-.038854c-.346237.4848695-1.013651.9182403-1.899015.9182403-1.25827 0-1.899934-.8798461-1.899934-1.772567 0-1.4925428 1.334828-2.3087052 3.735035-2.2958306v-.1275972c0-.5103889-.141161-1.4283993-1.411846-1.4283993-.577521 0-1.180562.178866-1.616921.4591201l-.257034-.739834c.513378-.331293 1.25781-.5483233 2.040866-.5483233 1.899245 0 2.361354 1.2881573 2.361354 2.5250458v2.3087053c0 .5354486.025979 1.0587122.102997 1.4794382z"/><path d="m161.693514 93.7876456c0-.6379861-.012415-1.16056-.051269-1.6707191h1.001466l.063914 1.0203181h.025979c.307613-.5867174 1.026526-1.1610199 2.053281-1.1610199.860074 0 2.194902.510389 2.194902 2.6275834v3.6858358h-1.129523v-3.5580086c0-.9952585-.372216-1.8242956-1.437595-1.8242956-.744432 0-1.321723.5230337-1.514614 1.1481452-.051268.1400121-.077018.331293-.077018.5225739v3.7115851h-1.129523z"/><path d="m178.639347 94.6293276c0-.1400121-.012875-.331293-.051729-.4719948-.166451-.7138548-.782596-1.3005722-1.629796-1.3005722-1.167917 0-1.86108 1.0203181-1.86108 2.3845739 0 1.2499931.616145 2.2834157 1.83579 2.2834157.756618 0 1.450011-.4979741 1.655086-1.3394261.038854-.1531167.051729-.3060034.051729-.4844097zm1.129522-5.3947191v7.4608746c0 .5485532.012415 1.1734348.051269 1.5941608h-1.01388l-.051729-1.0708971h-.02529c-.346696.6885652-1.104003 1.2111391-2.117884 1.2111391-1.501739 0-2.657011-1.2624079-2.657011-3.1372826-.012415-2.0532809 1.270685-3.3161487 2.785298-3.3161487.949508 0 1.591632.4467053 1.873955.9439897h.02575v-3.6858358z"/><path d="m195.665646 96.9380328c.500503.3060035 1.23229.5609681 2.002012.5609681 1.142397 0 1.809811-.5991323 1.809811-1.4665636 0-.8032878-.462109-1.2624079-1.629796-1.7091132-1.411846-.4972843-2.284795-1.2240138-2.284795-2.4358427 0-1.3391962 1.116418-2.3339948 2.798173-2.3339948.885364 0 1.527029.2043855 1.912119.4209559l-.308072.9055955c-.282324-.1528867-.859845-.4083111-1.642901-.4083111-1.180792 0-1.629796.7014399-1.629796 1.2881573 0 .8032878.526023 1.1987243 1.719689 1.6578444 1.463575.5614278 2.207777 1.2628678 2.207777 2.5252757 0 1.3263215-.988361 2.4744667-3.029227 2.4744667-.834325 0-1.745209-.2423197-2.207318-.5483232z"/><path d="m208.702864 95.7774728c0 .1655315.02575.3184183.051729.4591201.205075.7779983.885594 1.3134469 1.693939 1.3134469 1.193667 0 1.88683-.9692792 1.88683-2.3850337 0-1.2371185-.654539-2.2958306-1.847976-2.2958306-.770181 0-1.488864.5485531-1.707504 1.3904649-.038164.1402421-.077018.3062334-.077018.4591202zm-1.116648-1.6454296c0-.7908729-.025289-1.4281694-.051039-2.0148868h1.014111l.051269 1.0584823h.025749c.461649-.7524788 1.193666-1.1991841 2.207317-1.1991841 1.501739 0 2.631262 1.2628678 2.631262 3.1377425 0 2.2192722-1.360577 3.3156888-2.823462 3.3156888-.821451 0-1.540593-.3568124-1.912809-.9692792h-.02575v3.3543133h-1.116648z"/><path d="m220.475376 92.1169265h1.129523v6.1727174h-1.129523zm1.25827-1.7348625c.012415.3830216-.269909.689025-.719143.689025-.397506 0-.680289-.3060034-.680289-.689025 0-.3949767.295198-.70144.706268-.70144.423255 0 .693164.3064633.693164.70144z"/><path d="m228.990365 94.0426102c0-.7267295-.012415-1.351841-.051269-1.9256837h.988821l.039084 1.2118289h.050579c.282783-.8292671.963302-1.3523008 1.719689-1.3523008.128747 0 .218409.0128747.319568.0381642v1.0587122c-.114953-.0252895-.229905-.0381642-.383942-.0381642-.795471 0-1.361037.5995921-1.515073 1.4410441-.02529.1531167-.050579.3319827-.050579.5232636v3.2901694h-1.116878z"/><path d="m238.765462 92.1169265h1.128834v6.1727174h-1.128834zm1.25758-1.7348625c.013795.3830216-.268988.689025-.719602.689025-.395437 0-.67822-.3060034-.67822-.689025 0-.3949767.294279-.70144.705809-.70144.423025 0 .692013.3064633.692013.70144z"/><path d="m248.681262 90.3438997v1.7730268h1.618531v.8545566h-1.618531v3.3285636c0 .7651236.21841 1.1987243.848349 1.1987243.294278 0 .512688-.0381643.655229-.0765584l.050579.8421418c-.218409.0889732-.565566.1531166-1.002385.1531166-.524184 0-.949508-.1659913-1.218496-.4719948-.321867-.3319827-.43682-.8803059-.43682-1.6072653v-3.3667278h-.961002v-.8545566h.961002v-1.4794382z"/><path d="m257.104978 97.1421884c.333363.2165705.924218.4460156 1.487485.4460156.82306 0 1.207001-.4078514 1.207001-.9180104 0-.5361383-.321867-.8290372-1.154123-1.1352705-1.117338-.3954365-1.64382-1.0074434-1.64382-1.7470476 0-.9952584.809266-1.8114209 2.142714-1.8114209.62994 0 1.181711.1788661 1.528868.3830216l-.282783.8161625c-.243699-.1528868-.694313-.3570423-1.271374-.3570423-.666725 0-1.039171.3825618-1.039171.841452 0 .5103889.372446.7398341 1.181712 1.0458375 1.075955.4083112 1.630026.9439896 1.630026 1.862 0 1.0840017-.84835 1.8495851-2.324339 1.8495851-.680519 0-1.308159-.1659913-1.744979-.420726z"/><path d="m181.87181 127.902295v-3.334771c4.516482 0 8.138634-3.661926 8.138634-8.178408s-3.622152-8.17197-8.138634-8.17197v-3.497521h-69.678206v3.497521c-4.516482 0-8.138864 3.655488-8.138864 8.17197s3.622382 8.178408 8.138864 8.178408v3.334771z"/><path d="m115.649765 124.446571h62.766574v-3.334771h3.455701c2.581832 0 4.682933-2.118804 4.682933-4.722707 0-2.600684-2.101101-4.716269-4.682933-4.716269h-3.455701v-3.497544h-62.766574v3.497544h-3.455931c-2.582292 0-4.682933 2.115585-4.682933 4.716269 0 2.603903 2.100641 4.722707 4.682933 4.722707h3.455931z"/></g><path d="m181.87181 127.902295v-3.334771c4.516482 0 8.138634-3.661926 8.138634-8.178408s-3.622152-8.17197-8.138634-8.17197v-3.497521h-69.678206v3.497521c-4.516482 0-8.138864 3.655488-8.138864 8.17197s3.622382 8.178408 8.138864 8.178408v3.334771z" fill="#bf2f37"/><path d="m115.110868 124.985284h63.843908v-3.334771h2.917034c2.879099 0 5.22183-2.360433 5.22183-5.261374 0-2.897722-2.342731-5.255167-5.22183-5.255167h-2.917034v-3.497543h-63.843908v3.497543h-2.917264c-2.879329 0-5.221601 2.357445-5.221601 5.255167 0 2.900941 2.342272 5.261374 5.221601 5.261374h2.917264zm69.677976 5.834068h-75.512503v-3.726069c-4.685463-1.287928-8.138865-5.598645-8.138865-10.704144 0-5.10205 3.453402-9.410928 8.138865-10.697706v-3.889072h75.512503v3.889072c4.685692 1.286778 8.138864 5.595656 8.138864 10.697706 0 5.105499-3.453172 9.416216-8.138864 10.704144z" fill="#bf2f37"/><path d="m181.87181 127.902295v-3.334771c4.516482 0 8.138634-3.661926 8.138634-8.178408s-3.622152-8.17197-8.138634-8.17197v-3.497521h-69.678206v3.497521c-4.516482 0-8.138864 3.655488-8.138864 8.17197s3.622382 8.178408 8.138864 8.178408v3.334771z" fill="#fff"/><path d="m113.964792 126.131131h66.13583v-3.334771h1.771188c3.511108 0 6.367677-2.874042 6.367677-6.407221 0-3.52927-2.856569-6.401013-6.367677-6.401013h-1.771188v-3.497543h-66.13583v3.497543h-1.771188c-3.511108 0-6.367677 2.871743-6.367677 6.401013 0 3.533179 2.856569 6.407221 6.367677 6.407221h1.771188zm69.678435 3.542375h-73.22081v-3.493866c-4.622469-.840302-8.138865-4.911229-8.138865-9.790501 0-4.876743 3.516396-8.944221 8.138865-9.784064v-3.656868h73.22081v3.656868c4.622469.839843 8.138635 4.907321 8.138635 9.784064 0 4.879272-3.516166 8.950199-8.138635 9.790501z" fill="#fff"/><path d="m181.87181 127.902295v-3.334771c4.516482 0 8.138634-3.661926 8.138634-8.178408s-3.622152-8.17197-8.138634-8.17197v-3.497521h-69.678206v3.497521c-4.516482 0-8.138864 3.655488-8.138864 8.17197s3.622382 8.178408 8.138864 8.178408v3.334771z" fill="#bf2f37"/><path d="m145.339687 121.728934c.402564-.154956.471765-.303245.911803-.234503.684657.369687 1.594851.395896 2.187775.208524.577062-.311521 1.035492-.55614 1.380579-1.120097.347157-.719373.543036-1.193207.416818-2.005691-.173348-.720982-.442797-1.458746-.859385-2.110067-.416817-.651091-1.658994-2.146852-2.34457-3.307872-.156105-.139093-.130126-.356123-.130126-.494985.02299-.328305.292439-.447625.520964-.286462.38854.21818.440728.539127.573153.781447.187373.248757.177257.220019.494756.468776.234733.104147.312441.051958.520964.051958.336811-.181394.55729-.664885.547174-1.067908.051959-.764434.156105-1.215277 0-1.927523-.123459-.413599-.294278-.705578-.651321-.989741-.182544-.156335-.494755-.182314-.729488-.025979-.244159.205995-.122309.466707-.572923.468776-.502342-.291519-1.230221-.317498-1.927523-.234503-.832716.280714-.980315.487399-1.302411.989971-.399345.745352-.555221 2.022704.052188 3.412249.87065 1.410926 1.962698 2.502285 2.604593 4.271863.111734.310372.062074.6773-.077938.885594-.130586.130356-.442567.156335-.755697-.052188-.685347-.584878-.859155-2.057419-1.458517-2.213985-.357732-.07265-.711786-.034715-.833405.33865-.176797.757537-.640975 2.279967.364629 3.933214.381412.446245.824439.348306 1.067908.260482" fill="#fff"/><path d="m155.472287 122.249899c.89433-.008737.955255-.561198.833405-.833636-.058855-.854556-1.109751-.691324-1.250223-1.510705.014025.016323.011955-7.075554 0-7.110959.101388-.14599.26646-.161394.468776-.104377.156336.347386.320028 1.356899.989971 1.3546.518895-.011266 1.139639-.982154.989741-3.151767-.071271-.518206-.320258-.914102-.833406-.938012-1.021467.278415-3.454781.670403-5.335403-.034339-.429463-.005665-.812714.289533-.890192.555533-.358422.880996-.317039 1.725667-.156335 2.656782.123459.414058.320027.940311.781446.963761.710177-.057476.624882-1.104693.833636-1.484726.243469-.09541.352674-.085984.380262.054258.019542.022071.019083 6.886112.010346 6.874617.016553.885364-1.331149.919619-1.406558 1.901314-.078628.727649.48257.792022.755697.833635.672472-.060235 3.064403-.025979 3.828837-.025979" fill="#fff"/><path d="m161.4374 122.458215c.903756-.013104 2.676094.009426 3.490417-3.151766.501652-2.640688-.41268-4.020348-.286462-6.147198.246458-.606949.989741-.494756.807196-1.745208-.365319-.746732-.928815-1.536915-2.500446-1.484956-.824898.200017-.981694 1.143087-1.01572 1.484956-.062993 1.330459.063914 2.451706.312441 3.828836.109665 1.249304.279565 2.468489-.156335 3.698941-.190591.319337-.706038.413598-1.093888-.078168-.089203-.413599-.597982-1.504038.182315-4.688681.156335-1.207231.182314-2.308935.025979-3.490417-.372216-.897779-1.397822-.755467-1.745208-.755467-1.364486.336351-1.484726 1.345863-1.484726 1.484956.041843.480961.366468.495675.520964.911573.392448 1.106532-.394057 3.284191-.442796 3.985401-.576372 5.066415 1.979941 6.128346 3.386269 6.147198" fill="#fff"/><path d="m170.293568 114.461524c.249677-.533379.333362-1.2562.103917-1.875334-.133115-.294968-.737075-.297727-.833176-.026209-.160703.685806-.276115 1.505647-.104376 2.057879.220938.253355.688105.102997.833635-.156336m-4.40222 7.42363c-.208294-.347386-.156335-.77271.130356-1.119867.208524-.208753.34072-.12047.807427-1.354599.446475-1.852344.300025-4.050925.208293-6.043051-.006207-.175878-.045061-.888813-.833405-1.146076-.260482-.251976-.182315-1.024457.130126-1.328621 2.15168-1.835561 4.824785-.644653 5.365751-.33865 2.665748 2.040406 1.01618 4.584304.391069 5.07952-.182545.156565-.286692.103917-.234503.33842.112883.269218.721211.466017.703049 1.589102-.075639.731788-.272438 2.622986.98997 3.151767.208294.164842.078168.329914.078168.468776-.452683.554761-.862143.844211-1.588873 1.094118-.226456.054947-.592695.054257-.911803-.130356-.43521-.257954-.762365-.445786-.885594-.885594-.227376-.928356-.001149-2.92531-.206454-3.716183-.068512-.263701-.240021-.274737-.444866-.217031-.249907 1.28195-.005288 2.808289-.416818 4.167717-.295887.58074-.860074 1.047677-1.614852 1.093888-.208524 0-.925597.064833-1.667041-.70328" fill="#fff"/><path d="m116.999537 115.295114c-.321867.248527-.709257.878696-.911573 1.380579 0 .116791-.156336.300026.103917.442797.356352.182314.55568.182314.833635 0 .208294-.390609.100698-.84628.130356-1.276433.019312-.282093.051959-.616145-.156335-.546943m-5.912925 5.443918c.025979-.416817 1.641061-2.500446 2.188005-3.203725.390838-.599362.859615-1.146076 1.458747-2.500676.911573-2.761158.26669-3.286491.625111-4.167716.284163-.357043.680289-.527862 1.067909-.755238.781447-.260712 3.438458-1.068138 3.646752.729259-.260483 1.146076-.494986 1.745208-.625112 2.943472-.625341 5.105269.286462 4.792598.286462 6.616204-.052189.67707-1.172056 1.406559-1.953502 1.562894-.937783.182085-1.198265.077938-1.615083-.443027-.085524-.575222.312671-1.067908.02598-1.797167-.138863 0-.33842-.130356-.546944.051959-1.049516.82191-.917551 1.694859-1.718999 2.396529-.579131.116562-1.067909.078168-1.641062-.130356-.608788-.224847-1.224243-.651091-1.198264-1.302412" fill="#fff"/><path d="m139.426762 112.664174c-.138862.138862-.277725.303934-.416587.442796-.341409 1.376211-.171969 2.802312-.208524 4.193926.083455 1.634394.746961 1.647959 1.041699 1.641061.675691.02644.896169-.717303.938012-.98997.089893-1.719459.160244-3.439378-.078168-4.506367-.369457-1.267236-.978015-.793861-1.276432-.781446m-3.229934 5.496337c-.313131-1.985-.154266-2.973131-.051959-4.40222.137484-.895939.310832-1.42587.598903-2.057879.440728-.810185.965601-1.404259 1.745208-1.745208.635227-.113573.805357-.345777 1.380579-.260482.683508.024599 1.292756.349225 1.823376.625111.277955.277955.55568.55591.833635.833635.210363.294279.340949.511079.442797.781447.489698 1.709113.390839 4.451879.33865 5.183667-.078397 1.093887-.65109 5.027101-3.490646 5.131248-1.780154.035865-3.310401-1.369544-3.620543-4.089319" fill="#fff"/><path d="m177.97768 117.717599c.151278-.463259.067592-1.550479-.33865-2.005691-.326005.502572-.592235 1.612094-.520964 1.953502.101158.14599.344857.265311.547173.208294.215421.045062.176567.005748.312441-.156105m1.076185-6.728168c1.030434 1.024456.891571 2.463661 1.027675 3.829526.224157 2.248701 1.61968 3.778028 2.111907 5.903959.209673.904906-1.117568 1.994885-2.015117 1.901544-1.347932-.139783-.971808-2.509872-1.688652-2.85335-.550622-.263701-1.120556-.274047-1.202402.133344-.135874.67845.133574 2.27514-.698681 2.506424-1.157342.321867-2.658851-.756157-2.555394-1.947984.134725-1.551629.988821-2.914045 1.177344-4.549359.108515-.942151.248067-2.142714.04644-3.032216-.146449-.646493-.620513-.46027-.581659-1.602208.015633-.4582.419117-1.032043.906285-1.245395 1.2585-.551082 2.576315.065293 3.472254.955715" fill="#fff"/><path d="m129.112768 112.299843c-1.262868 3.426963-1.100555 9.668192 2.927839 9.718311 2.670116.033107 4.567981-4.855592 2.640458-7.140847-.7511-.890651-2.108228-.377044-2.802771.416128-.140242.160014-.215421.550163-.202316.74949.034945.537748.626261.573613.815012.975487.31497.669713.424635 1.61945-.19312 1.992126-.43383.261632-.848119-.235882-.962612-.644423-.475903-1.700147-.266459-3.322586.159784-4.995375.24278-.952496.766733-.921918.970429-.743512.469926.41176.203006 1.258959 1.263098 1.502199.295428.067822.660746-.100469.831106-.319798.70167-.900998 1.175504-3.011065.117711-3.908154-.340719-.28922-.781676-.308073-1.199184.150818-.345547.379573-.665804-.328075-1.607035-.24324-1.247234.112424-2.283646 1.202403-2.758399 2.49079" fill="#fff"/><path d="m121.548436 115.871508c-.02437 1.59692-1.196196 4.075525-1.432078 4.714201-.177717.480961.601661 1.320344 1.893267 1.264477 1.108831-.04805 1.529327-2.873122 1.866368-4.393024.147599-.053337.206455.004599.282553.14622.658908 1.224244.60603 2.971521 1.420353 4.107252.72512 1.011351 2.716097.175647 2.534012-.899848-.594764-3.511568-1.726816-6.460329-.148059-10.222033.148519-.353594.137024-1.004685-.765123-1.275283-.586028-.175877-1.142628.042762-1.582666.367848-1.213438.896399-1.034342 2.162256-.881225 3.89459.033796.202086-.229216.164152-.297038.043452-.398195-.709487-.427163-1.992127-.480501-2.777022-.032417-.479122-.133805-1.06446-.488318-1.116418-.581889-.085065-2.513091.606029-2.778861 1.793718-.330603 1.47576.901457 1.467943.857316 4.35187" fill="#fff"/><path d="m187.533678 104.622145h.346467v-.776389h.273587c.183924 0 .312671.021152.385781.063454.123688.07334.185763.223698.185763.451763v.156106l.007127.063453c.001839.008277.003218.015634.005058.022071.001609.006668.002988.012875.004828.019542h.324625l-.012185-.02437c-.008276-.016323-.013794-.050579-.017012-.102537-.003219-.052189-.005058-.100929-.005058-.14668v-.14392c0-.099319-.035636-.201167-.107136-.305314-.07173-.104147-.185074-.16829-.33957-.19266.12208-.019542.21726-.051499.285772-.095411.128517-.082995.19266-.212432.19266-.388079 0-.247608-.101617-.413599-.305083-.498204-.113803-.047131-.292899-.070811-.537058-.070811h-.688566zm.988822-1.062161c-.07334.029198-.183005.043912-.329684.043912h-.312671v-.712935h.295658c.191971 0 .331523.02437.418657.07334.087134.04874.130816.14484.130816.288071 0 .151277-.067822.253815-.202776.307612zm1.003535-1.181711c-.350146-.348306-.773401-.522574-1.269535-.522574-.493376 0-.914102.174268-1.262408.522574-.350146.349915-.525103.771561-.525103 1.264707 0 .497974.173348.922149.520045 1.272064.348306.351755.770871.527402 1.267466.527402.496134 0 .919389-.175647 1.269535-.527402.349915-.351525.524873-.775469.524873-1.272064 0-.494755-.174958-.916401-.524873-1.264707zm-.178177.173348c.299336.301176.449234.664885.449234 1.091359 0 .429692-.149898.795931-.449234 1.098716-.299566.302785-.663505.454292-1.091358.454292-.428313 0-.792023-.151507-1.091589-.454292-.297957-.302785-.446705-.669024-.446705-1.098716 0-.426474.149438-.790183.449234-1.091359.300945-.302784.663965-.454062 1.08906-.454062.426243 0 .789953.151278 1.091358.454062z" fill="#fff"/><path d="m84.8022714 120.23108c.2685289.046441.6637355.062075 1.153433.062075 1.421962 0 2.7331098-.514987 2.7331098-2.044085 0-1.435526-1.2481539-2.028911-2.7489732-2.028911h-1.1375696zm0-5.040665h1.2481538c1.4536889 0 2.3066362-.74903 2.3066362-1.763141 0-1.23298-.947898-1.71693-2.3381331-1.71693-.6320087 0-.9954884.047131-1.2166569.093571zm-1.3743717-4.307039c.6002818-.124608 1.5484097-.21818 2.5119413-.21818 1.3743716 0 2.2592757.234043 2.9227813.764434.5531513.405782.8849041 1.029744.8849041 1.856942 0 1.014111-.679599 1.903843-1.8013051 2.309625v.031037c1.0111218.249677 2.1962817 1.076875 2.1962817 2.63747 0 .905135-.3634797 1.591631-.9005376 2.106388-.7425929.671093-1.9433863.983304-3.6814676.983304-.9476681 0-1.6743975-.062534-2.1325981-.124609z" fill="#fff"/><path d="m92.5125929 113.70785 1.6746275 4.463144c.174038.499354.3634797 1.092279.4896975 1.544731h.0317269c.1423111-.452452.3002558-1.029744.4896975-1.576228l1.5166828-4.431647h1.4693224l-2.0852377 5.383914c-.9952585 2.590338-1.6748574 3.91689-2.6227554 4.728454-.6793691.592925-1.3587382.826968-1.7063544.889043l-.3476162-1.154353c.3476162-.109435.8058167-.327615 1.2166568-.670863.3791132-.296807.8531772-.827198 1.1690666-1.529787.0632238-.140472.1105842-.249677.1105842-.327615 0-.078167-.0314969-.187142-.0947208-.358881l-2.8280605-6.959912z" fill="#fff"/></g></svg>