<?xml version="1.0" encoding="UTF-8" standalone="no"?>
<!DOCTYPE svg PUBLIC "-//W3C//DTD SVG 1.1//EN" "http://www.w3.org/Graphics/SVG/1.1/DTD/svg11.dtd">
<svg width="100%" height="100%" viewBox="0 0 4813 2757" version="1.1" xmlns="http://www.w3.org/2000/svg" xmlns:xlink="http://www.w3.org/1999/xlink" xml:space="preserve" xmlns:serif="http://www.serif.com/" style="fill-rule:evenodd;clip-rule:evenodd;stroke-linejoin:round;stroke-miterlimit:2;">
    <g transform="matrix(1,0,0,1,-841.562,-835.467)">
        <g id="Logo-Artwork" serif:id="Logo Artwork" transform="matrix(4.16667,0,0,4.16667,0,0)">
            <g transform="matrix(1,0,0,1,541.832,581.297)">
                <path d="M0,113.942L0,86.22L-0.044,86.22L-0.044,80.856C-0.044,75.094 -3.903,70.146 -7.302,65.791C-9.586,62.861 -11.949,59.843 -11.949,57.807L-11.949,22.853C-11.949,21.491 -13.046,20.384 -14.419,20.384L-26.616,20.384C-27.979,20.384 -29.085,21.491 -29.085,22.853L-29.085,57.807C-29.085,58.241 -29.236,58.737 -29.421,59.259C-28.492,61.188 -27.757,63.242 -27.297,65.428C-25.509,62.896 -24.146,60.391 -24.146,57.807L-24.146,25.323L-16.879,25.323L-16.879,57.807C-16.879,61.543 -14.118,65.083 -11.197,68.827C-8.134,72.74 -4.983,76.794 -4.983,80.856L-4.983,118.722C-13.224,125.989 -22.934,131.512 -33.6,134.725L-33.6,70.013C-33.6,63.605 -37.928,58.064 -41.751,53.178C-44.487,49.673 -47.071,46.363 -47.071,43.937L-47.071,4.417C-47.071,3.045 -48.178,1.947 -49.541,1.947L-63.34,1.947C-64.703,1.947 -65.8,3.045 -65.8,4.417L-65.8,43.937C-65.8,46.353 -68.394,49.664 -71.129,53.17C-74.944,58.064 -79.272,63.605 -79.272,70.013L-79.272,134.788C-89.974,131.61 -99.684,126.113 -107.889,118.881L-107.889,80.856C-107.889,76.794 -104.729,72.74 -101.675,68.827C-98.746,65.083 -95.983,61.543 -95.983,57.807L-95.983,25.323L-88.725,25.323L-88.725,57.807C-88.725,60.391 -87.363,62.896 -85.565,65.428C-85.115,63.242 -84.38,61.188 -83.441,59.259C-83.636,58.737 -83.787,58.241 -83.787,57.807L-83.787,22.853C-83.787,21.491 -84.893,20.384 -86.256,20.384L-98.453,20.384C-99.816,20.384 -100.923,21.491 -100.923,22.853L-100.923,57.807C-100.923,59.843 -103.286,62.861 -105.569,65.791C-108.968,70.146 -112.828,75.094 -112.828,80.856L-112.828,86.22L-112.925,86.22L-112.925,114.048C-126.901,99.329 -135.381,79.086 -135.151,56.975C-135.833,12.356 -100.064,-24.147 -56.462,-23.36C-12.861,-24.147 22.917,12.879 22.235,56.984C22.588,79.042 14.021,99.24 0,113.942M-38.539,93.301L-38.601,93.301L-38.601,136.035C-44.354,137.337 -50.32,138.001 -56.462,137.885C-62.623,138.001 -68.598,137.345 -74.333,136.062L-74.333,70.013C-74.333,69.889 -74.307,69.756 -74.298,69.632C-74.112,65.056 -70.625,60.56 -67.235,56.206C-63.96,52.018 -60.871,48.062 -60.871,43.937L-60.871,6.877L-52.01,6.877L-52.01,43.937C-52.01,48.062 -48.921,52.018 -45.638,56.213C-42.239,60.56 -38.76,65.056 -38.574,69.632C-38.565,69.756 -38.539,69.889 -38.539,70.013L-38.539,93.301ZM-56.719,-31.467C-104.569,-32.512 -144.834,8.009 -144.046,57.427C-144.48,84.663 -132.177,109.455 -112.925,125.9C-111.296,127.29 -109.614,128.609 -107.889,129.875C-102.428,133.893 -96.515,137.283 -90.239,139.912C-89.416,140.257 -88.575,140.585 -87.734,140.904C-84.973,141.957 -82.149,142.878 -79.272,143.629C-77.644,144.063 -75.997,144.453 -74.333,144.79C-68.624,145.913 -62.729,146.454 -56.719,146.32C-50.523,146.454 -44.434,145.861 -38.539,144.648C-36.875,144.302 -35.228,143.904 -33.6,143.462C-30.741,142.682 -27.925,141.754 -25.182,140.682C-24.527,140.434 -23.872,140.187 -23.226,139.912C-16.738,137.204 -10.622,133.69 -4.983,129.521C-3.275,128.255 -1.611,126.919 0,125.538C19.19,109.092 31.564,84.467 31.13,57.427C31.909,8.275 -9.135,-32.255 -56.719,-31.467" style="fill:white;fill-rule:nonzero;"/>
            </g>
            <g transform="matrix(1,0,0,1,1143.18,355.295)">
                <path d="M0,-10.13C-2.145,-11.113 -4.352,-12.019 -6.481,-12.905C-4.673,-28.322 -2.808,-43.708 -0.959,-59.015C1.4,-58.31 3.777,-57.544 6.103,-56.855C13.474,-54.57 18.473,-51.767 21.094,-48.582C24.646,-44.045 25.902,-37.692 24.84,-29.452C23.811,-21.909 21.141,-14.328 17.424,-11.302C13.729,-8.326 7.942,-7.948 0,-10.13M63.008,105.498C54.025,75.746 44.8,45.433 35.287,14.427C49.854,8.219 58.362,-3.409 60.914,-21.063C63.216,-37.043 60.283,-50.536 51.958,-61.828C47.647,-67.631 41.81,-72.547 34.301,-76.531C30.257,-78.593 23.568,-81.222 14.128,-84.344C-2.486,-89.869 -19.201,-95.133 -35.854,-100.166C-41.967,-43.727 -48.003,13.041 -54.013,70.182C-41.683,72.631 -29.493,75.147 -17.283,77.764C-14.635,55.898 -12.063,34.182 -9.441,12.474C-2.497,15.585 -3.955,15.458 2.364,17.325C2.547,17.314 2.743,17.315 2.932,17.279C11.489,48.452 19.924,79.143 28.089,109.192C33.95,124.494 40.079,128.269 53.921,131.736C61.523,133.447 69.084,135.144 76.583,136.864C70.183,127.413 66.301,116.672 63.008,105.498M-696.491,69.209C-696.316,69.665 -696.084,70.102 -695.906,70.537C-685.904,68.611 -675.971,66.728 -665.936,64.973C-671.265,6.678 -676.691,-51.429 -682.153,-109.228C-692.729,-106.411 -703.272,-103.508 -713.808,-100.445C-710.875,-72.321 -707.917,-44.072 -704.979,-15.781C-731.902,-79.024 -767.197,-84.06 -767.133,-84.107C-777.79,-80.753 -788.333,-77.33 -798.893,-73.759C-791.74,-20.535 -784.58,33.181 -777.41,87.393C-767.343,85.21 -757.147,83.115 -746.986,80.985C-751.775,41.264 -756.552,1.813 -761.421,-37.477C-744.413,-30.091 -701.815,56.075 -696.491,69.209M99.737,54.176C108.966,37.055 118.202,20.33 127.512,4.087C130.879,27.972 134.136,51.46 137.358,74.677C126.433,66.076 107.881,57.365 99.737,54.176M140.974,101.712C142.421,112.639 143.909,123.435 145.372,134.188C156.903,137.148 168.477,140.09 179.975,143.081C172.633,87.486 164.714,29.598 156.11,-30.512C145.26,-35.026 134.418,-39.506 123.614,-43.922C103.131,-8.373 83.052,29.438 63.414,69.318C66.935,81.214 70.478,92.988 73.939,104.698C78.753,94.883 83.57,85.171 88.457,75.631C109.486,80.517 133.249,96.908 140.974,101.712M-857.175,51.64C-863.454,54.257 -882.165,60.822 -898.09,71.057C-894.991,44.943 -891.786,18.409 -888.629,-8.387C-878.025,10.993 -867.588,31.094 -857.175,51.64M-843.025,80.242C-834.483,97.905 -826.012,115.888 -817.619,134.305C-803.378,131.032 -789.129,127.91 -774.806,124.944C-805.804,53.308 -838.063,-13.268 -871.355,-73.615C-884.933,-68.025 -898.388,-62.268 -911.883,-56.426C-922.548,13.753 -932.272,80.976 -941.208,145.123C-929.351,142.101 -917.5,139.008 -905.579,136.034C-904.4,125.471 -903.168,114.91 -902.024,104.299C-893.247,99.036 -862.952,81.286 -843.025,80.242M-53.944,-104.898C-65.181,-108.164 -76.351,-111.118 -87.651,-113.982C-90.143,-85.927 -92.635,-57.767 -95.182,-29.612C-96.738,-11.612 -98.495,0.48 -100.361,6.737C-104.375,20.117 -111.204,26.001 -121.122,24.27C-128.622,22.947 -133.396,17.291 -135.502,7.132C-136.928,0.278 -136.809,-14.203 -135.147,-36.202C-132.944,-65.395 -130.789,-94.644 -128.5,-123.753C-141.49,-126.628 -154.516,-129.316 -167.596,-131.824C-169.666,-99.198 -171.748,-66.499 -173.802,-33.84C-174.742,-19.116 -175.155,-8.986 -175.025,-3.559C-174.729,7.729 -173.002,17.455 -169.758,25.545C-161.92,46.149 -147.236,57.69 -125.788,60.992C-99.439,65.103 -81.317,54.591 -71.228,29.708C-67.845,21.465 -65.279,8.132 -63.407,-10.416C-60.248,-41.99 -57.119,-73.525 -53.944,-104.898M-180.429,-134.165C-217.012,-140.922 -253.916,-145.456 -290.778,-148.581C-291.097,-136.651 -291.423,-124.677 -291.75,-112.63C-280.461,-111.777 -269.237,-110.739 -257.952,-109.575C-259.796,-59.112 -261.621,-8.667 -263.466,41.784C-251.023,42.791 -238.618,43.765 -226.182,44.961C-223.812,-5.031 -221.38,-55.024 -218.984,-104.951C-206.802,-103.254 -194.655,-101.307 -182.434,-99.231C-181.802,-110.89 -181.058,-122.511 -180.429,-134.165M-313.402,-54.944C-319.467,-65.031 -325.812,-74.337 -332.334,-82.89C-337.863,-90.098 -341.517,-95.338 -343.188,-98.449C-344.795,-101.584 -345.612,-104.659 -345.572,-107.755C-345.533,-115.715 -341.302,-119.573 -333.104,-119.18C-328.098,-118.966 -322.227,-116.365 -315.435,-111.239C-311.735,-120.892 -308.054,-130.485 -304.297,-140.061C-315.184,-149.341 -326.808,-154.201 -339.069,-154.741C-353.102,-155.253 -364.433,-151.079 -372.986,-141.992C-381.59,-133.014 -385.835,-120.943 -385.745,-105.917C-385.722,-93.779 -382.515,-82.651 -376.106,-72.361C-368.988,-62.798 -363.196,-55.022 -358.749,-49.145C-351.424,-39.18 -346.839,-32.412 -344.831,-28.718C-341.865,-23.083 -340.416,-17.681 -340.433,-12.582C-340.526,-7.2 -342.107,-2.828 -345.305,0.516C-348.479,3.902 -352.269,5.475 -356.751,5.391C-364.912,5.182 -372.533,0.63 -379.668,-8.489C-383.507,2.009 -387.295,12.494 -391.142,22.983C-379.433,34.636 -366.312,40.414 -351.614,40.79C-337.187,41.084 -325.549,36.376 -316.388,26.539C-307.307,16.617 -302.512,3.439 -302.105,-13.3C-301.763,-27.821 -305.505,-41.696 -313.402,-54.944M-461.048,3.216C-476.478,3.749 -484.622,-15.148 -485.413,-53.927C-486.166,-92.694 -478.609,-112.619 -462.632,-113.485C-446.479,-114.351 -438.303,-94.755 -438.092,-55.226C-438.005,-16.732 -445.607,2.64 -461.048,3.216M-415.433,-126.655C-427.478,-145.031 -442.73,-153.851 -460.926,-152.823C-480.915,-151.7 -497.049,-141.282 -509.072,-122.17C-521.163,-103.105 -526.567,-79.249 -525.659,-51.041C-524.798,-23.355 -518.258,-1.067 -506.417,16.424C-494.237,34.364 -479.083,43.01 -460.497,42.388C-441.887,41.783 -426.921,32.054 -415.258,12.835C-403.899,-5.564 -398,-28.942 -397.737,-57.364C-397.585,-85.096 -403.332,-108.331 -415.433,-126.655M-543.917,-52.545C-556.073,-49.393 -568.039,-46.087 -579.985,-42.657C-578.906,-23.952 -577.696,-5.134 -576.511,13.631C-578.407,14.598 -580.222,15.21 -581.971,15.417C-590.675,16.624 -598.302,12.398 -605.009,2.715C-611.73,-6.915 -615.667,-19.531 -616.827,-35.133C-618.107,-52.118 -615.558,-66.401 -609.21,-78.087C-602.829,-89.716 -593.602,-96.756 -581.735,-98.749C-575.955,-99.74 -570.306,-99.585 -564.786,-98.134C-562.231,-109.416 -559.728,-120.808 -557.196,-132.164C-567.713,-136.616 -578.562,-137.885 -589.678,-135.734C-611.179,-131.704 -628.164,-119.284 -640.325,-99.556C-652.45,-79.718 -657.235,-56.818 -654.933,-30.551C-652.604,-3.475 -643.867,17.612 -628.981,33.253C-614.095,48.913 -596.543,55.563 -575.933,52.983C-564.652,51.607 -552.535,47.112 -539.333,39.499C-540.904,8.774 -542.403,-21.915 -543.917,-52.545" style="fill:white;fill-rule:nonzero;"/>
            </g>
            <g transform="matrix(1,0,0,1,486.414,861.157)">
                <path d="M0,-52.617L-20.489,0.876L-23.279,0.876L-38.984,-36.434L-54.688,0.876L-57.559,0.876L-78.047,-52.617L-68.719,-52.617L-55.566,-17.06L-40.499,-53.493L-37.549,-53.493L-22.401,-17.06L-9.248,-52.617L0,-52.617Z" style="fill:white;fill-rule:nonzero;"/>
            </g>
            <g transform="matrix(1,0,0,1,0,607.696)">
                <rect x="507.071" y="200.844" width="8.45" height="52.616" style="fill:white;"/>
            </g>
            <g transform="matrix(1,0,0,1,583.285,861.157)">
                <path d="M0,-52.617L0,0.876L-2.869,0.876L-34.917,-35.637L-34.917,-0.001L-43.367,-0.001L-43.367,-53.493L-40.418,-53.493L-8.45,-17.14L-8.45,-52.617L0,-52.617Z" style="fill:white;fill-rule:nonzero;"/>
            </g>
            <g transform="matrix(1,0,0,1,607.767,861.156)">
                <path d="M0,-52.616L34.598,-52.616L34.598,-45.042L8.45,-45.042L8.45,-31.57L28.141,-31.57L28.141,-24.236L8.45,-24.236L8.45,-7.573L35.555,-7.573L35.555,0L0,0L0,-52.616Z" style="fill:white;fill-rule:nonzero;"/>
            </g>
            <g transform="matrix(1,0,0,1,666.524,823.608)">
                <path d="M0,22.481C3.508,27.584 7.734,30.851 13.792,30.851C19.213,30.851 22.88,27.982 22.88,23.516C22.88,19.771 20.648,18.175 15.147,15.625L9.328,12.915C1.674,9.407 -2.949,5.34 -2.949,-1.674C-2.949,-10.285 4.544,-15.944 13.632,-15.944C21.046,-15.944 27.345,-12.198 30.613,-6.538L24.714,-1.993C21.924,-6.139 18.097,-8.372 13.632,-8.372C9.168,-8.372 5.661,-6.139 5.661,-1.993C5.98,2.153 7.812,2.871 12.995,5.501L18.895,8.211C27.425,12.117 31.491,16.262 31.491,23.199C31.491,32.365 23.997,38.425 13.871,38.425C5.262,38.425 -1.913,34.121 -5.979,27.024L0,22.481Z" style="fill:white;fill-rule:nonzero;"/>
            </g>
            <g transform="matrix(1,0,0,1,768.415,842.184)">
                <path d="M0,-14.67C4.067,-17.858 5.581,-19.932 5.581,-22.722C5.581,-25.512 3.827,-27.187 0.958,-27.187C-1.993,-27.187 -3.747,-25.512 -3.747,-22.403C-3.747,-20.091 -2.63,-18.099 0,-14.67M-1.753,-4.783C-4.704,-2.474 -6.696,-0.64 -7.653,0.638C-8.609,1.913 -9.088,3.348 -9.088,4.94C-9.088,9.166 -5.66,12.275 -0.638,12.275C2.632,12.275 5.741,10.842 8.77,7.971L-1.753,-4.783ZM25.75,-1.038C22.721,3.507 20.489,6.616 19.053,8.368L27.824,18.973L17.858,18.973L13.792,14.029C9.408,17.856 4.783,19.85 -1.035,19.85C-10.762,19.85 -17.697,13.949 -17.697,5.738C-17.697,2.947 -16.9,0.317 -15.227,-2.073C-13.552,-4.466 -10.602,-7.257 -6.458,-10.444C-9.964,-14.909 -11.56,-18.576 -11.56,-22.482C-11.56,-29.738 -6.536,-34.52 1.036,-34.52C8.292,-34.52 13.393,-29.976 13.393,-23.359C13.393,-18.496 10.683,-14.191 4.386,-9.329L13.873,2.071C14.59,1.115 16.184,-1.276 18.814,-5.184C19.374,-6.061 20.169,-7.335 21.366,-9.01L28.062,-4.386L25.75,-1.038Z" style="fill:white;fill-rule:nonzero;"/>
            </g>
            <g transform="matrix(1,0,0,1,852.131,823.608)">
                <path d="M0,22.481C3.508,27.584 7.733,30.851 13.792,30.851C19.213,30.851 22.88,27.982 22.88,23.516C22.88,19.771 20.648,18.175 15.147,15.625L9.328,12.915C1.674,9.407 -2.949,5.34 -2.949,-1.674C-2.949,-10.285 4.545,-15.944 13.632,-15.944C21.046,-15.944 27.345,-12.198 30.612,-6.538L24.714,-1.993C21.924,-6.139 18.097,-8.372 13.632,-8.372C9.168,-8.372 5.661,-6.139 5.661,-1.993C5.979,2.153 7.812,2.871 12.995,5.501L18.895,8.211C27.425,12.117 31.49,16.262 31.49,23.199C31.49,32.365 23.996,38.425 13.871,38.425C5.262,38.425 -1.913,34.121 -5.979,27.024L0,22.481Z" style="fill:white;fill-rule:nonzero;"/>
            </g>
            <g transform="matrix(1,0,0,1,924.682,836.362)">
                <path d="M0,-3.028C5.979,-3.028 9.327,-6.456 9.327,-11.639C9.327,-16.82 5.979,-20.328 0,-20.328L-10.604,-20.328L-10.604,-3.028L0,-3.028ZM-19.054,-27.822L0.16,-27.822C10.763,-27.822 18.017,-21.206 18.017,-11.717C18.017,-2.311 10.763,4.466 0.16,4.466L-10.604,4.466L-10.604,24.794L-19.054,24.794L-19.054,-27.822Z" style="fill:white;fill-rule:nonzero;"/>
            </g>
            <g transform="matrix(1,0,0,1,0,607.696)">
                <rect x="963.271" y="200.844" width="8.45" height="52.616" style="fill:white;"/>
            </g>
            <g transform="matrix(1,0,0,1,1004.57,836.362)">
                <path d="M0,-3.028L10.604,-3.028C16.423,-3.028 19.93,-6.536 19.93,-11.639C19.93,-16.82 16.423,-20.328 10.604,-20.328L0,-20.328L0,-3.028ZM24.635,24.794L9.647,4.466L0,4.466L0,24.794L-8.45,24.794L-8.45,-27.822L10.762,-27.822C21.365,-27.822 28.62,-21.206 28.62,-11.717C28.62,-4.783 24.793,0.638 18.496,3.111L34.28,24.794L24.635,24.794Z" style="fill:white;fill-rule:nonzero;"/>
            </g>
            <g transform="matrix(1,0,0,1,0,607.696)">
                <rect x="1057.59" y="200.844" width="8.45" height="52.616" style="fill:white;"/>
            </g>
            <g transform="matrix(1,0,0,1,1102.79,853.582)">
                <path d="M0,-37.468L-17.698,-37.468L-17.698,-45.042L26.229,-45.042L26.229,-37.468L8.45,-37.468L8.45,7.574L0,7.574L0,-37.468Z" style="fill:white;fill-rule:nonzero;"/>
            </g>
            <g transform="matrix(1,0,0,1,1150.31,823.608)">
                <path d="M0,22.481C3.507,27.584 7.732,30.851 13.791,30.851C19.212,30.851 22.879,27.982 22.879,23.516C22.879,19.771 20.647,18.175 15.146,15.625L9.326,12.915C1.674,9.407 -2.95,5.34 -2.95,-1.674C-2.95,-10.285 4.543,-15.944 13.633,-15.944C21.046,-15.944 27.344,-12.198 30.612,-6.538L24.713,-1.993C21.923,-6.139 18.097,-8.372 13.633,-8.372C9.168,-8.372 5.66,-6.139 5.66,-1.993C5.979,2.153 7.812,2.871 12.995,5.501L18.894,8.211C27.424,12.117 31.489,16.262 31.489,23.199C31.489,32.365 23.995,38.425 13.871,38.425C5.261,38.425 -1.914,34.121 -5.979,27.024L0,22.481Z" style="fill:white;fill-rule:nonzero;"/>
            </g>
            <g transform="matrix(1,0,0,1,1340.95,314.497)">
                <path d="M0,25.318C-7.212,25.295 -12.69,19.764 -12.722,12.641C-12.697,5.549 -7.188,-0.043 -0.01,-0.036C7.154,-0.043 12.761,5.559 12.702,12.628C12.739,19.757 7.148,25.297 0,25.318M0.011,-3.088C-8.833,-3.088 -16.125,3.938 -16.084,12.665C-16.084,21.337 -8.84,28.42 0.011,28.388C8.976,28.42 16.14,21.313 16.146,12.648C16.116,3.918 8.951,-3.102 0.011,-3.088" style="fill:white;fill-rule:nonzero;"/>
            </g>
            <g transform="matrix(1,0,0,1,1337.06,328.508)">
                <path d="M0,-2.733L0.038,-7.836L3.61,-7.797C5.372,-7.795 7.646,-7.508 7.626,-5.444C7.636,-2.949 5.63,-2.736 3.335,-2.733L0,-2.733ZM11.074,-5.213C11.046,-8.872 8.676,-10.344 4.112,-10.379L-3.128,-10.34L-3.142,7.639L0.038,7.646L0.018,-0.145L2.929,-0.131L7.732,7.612L11.314,7.646L6.353,-0.417C8.882,-0.554 11.104,-1.896 11.074,-5.213" style="fill:white;fill-rule:nonzero;"/>
            </g>
            <g transform="matrix(1,0,0,1,1019.76,546.954)">
                <path d="M0,182.089C-3.13,181.219 -5.35,179.289 -6.49,176.689C-6.68,151.549 -6.689,120.799 -6.8,95.509C-5.96,94.429 -4.59,93.778 -2.859,93.009C5.53,89.299 14.351,85.859 21.57,80.419C33.3,71.579 41.26,59.238 37.94,44.079C36.061,35.509 26.16,7.849 21.07,-6.251L-42.62,-6.251C-47.67,7.289 -58.09,33.738 -60.24,41.399C-62.38,49.028 -61.26,56.939 -57.47,64.209C-49.439,79.619 -36.479,88.839 -20.029,93.049C-17.189,93.778 -15.52,94.829 -14.609,96.429C-15.04,120.759 -15.43,151.198 -15.729,175.459C-17.09,179.238 -20.069,181.669 -24.56,182.948C-27.51,183.778 -30.569,184.219 -33.58,184.859C-37.31,185.649 -41.029,186.459 -44.76,187.259C-44.64,187.849 -44.51,188.439 -44.39,189.028L21.811,189.028C21.971,188.499 22.12,187.959 22.271,187.419C20.44,186.908 18.63,186.329 16.78,185.899C11.19,184.619 5.521,183.629 0,182.089M108.49,160.349L95.71,143.019L88.5,133.249L76.271,116.669L66.811,103.849L66.82,103.849C67.471,103.658 68.11,103.469 68.74,103.259L68.75,103.259C70.021,102.849 71.271,102.408 72.48,101.939L72.49,101.939C72.95,101.759 73.4,101.579 73.851,101.389C74.75,101.009 75.63,100.619 76.49,100.219C76.931,100.019 77.36,99.809 77.78,99.599C83.46,96.769 88.42,93.169 92.58,88.929C102.33,79.009 107.73,65.528 107.73,49.969C107.73,17.299 83.3,-6.251 45.62,-6.251L30.59,-6.251C30.96,-5.552 31.28,-4.811 31.55,-4.001C32.891,0.039 34.311,4.149 35.681,8.119L35.721,8.249C36.42,10.269 37.13,12.309 37.83,14.359L44.73,14.359C46.2,14.359 47.63,14.408 49.03,14.509C49.49,14.539 49.95,14.579 50.41,14.629C51.51,14.738 52.59,14.879 53.641,15.049C54.04,15.109 54.44,15.189 54.83,15.259C56.221,15.528 57.57,15.849 58.88,16.219C65.08,17.988 70.221,20.988 74.2,24.969C80.5,31.259 83.88,40.009 83.88,50.269C83.88,71.759 69.76,85.889 44.73,85.889L28.641,85.889C21.8,92.009 13.7,96.719 4.46,99.929L0.66,101.259L0.66,106.499L41.79,106.499L53.45,122.249L64.07,136.599L73.7,149.619L83.44,162.769L92.24,174.669L102.141,188.039L128.92,188.039L114.811,168.908L108.49,160.349ZM287.586,127.988L248.728,32.315L209.87,127.988L287.586,127.988ZM337.335,188.04L312.902,188.04L296.417,148.593L201.039,148.593L184.555,188.04L160.415,188.04L244.606,-9.485L253.144,-9.485L337.335,188.04ZM-183.999,94.43L-106.284,94.43L-106.284,73.822L-183.999,73.822L-183.999,14.359L-82.44,14.359L-82.44,-6.246L-206.961,-6.246L-206.961,188.04L-78.907,188.04L-78.907,167.434L-183.999,167.434L-183.999,94.43ZM-350.614,-6.246L-373.576,-6.246L-373.576,188.04L-258.474,188.04L-258.474,167.434L-350.614,167.434L-350.614,-6.246ZM-455.998,90.603C-455.114,46.74 -490.146,10.825 -532.83,11.709C-576.691,11.709 -609.956,45.563 -609.956,90.603C-609.956,135.643 -576.691,170.084 -532.83,170.084C-490.146,170.673 -455.114,135.054 -455.998,90.603M-432.154,90.898C-430.976,146.533 -478.665,192.162 -533.124,191.278C-588.172,192.456 -634.978,145.944 -633.801,90.898C-634.978,35.26 -588.172,-10.367 -533.124,-9.485C-478.665,-10.367 -430.976,35.26 -432.154,90.898M-683.549,137.115C-683.549,169.2 -710.043,191.278 -746.25,191.278C-776.57,191.278 -802.477,175.382 -817.784,149.477L-800.71,136.82C-786.286,158.898 -768.035,170.084 -746.544,170.084C-723.289,170.084 -707.392,157.425 -707.392,137.702C-707.392,120.04 -717.99,114.153 -739.773,103.555L-761.557,93.252C-788.346,80.594 -805.419,67.052 -805.419,41.147C-805.419,10.825 -778.632,-9.485 -746.838,-9.485C-720.935,-9.485 -698.562,3.761 -685.903,23.485L-702.682,36.142C-713.281,20.54 -729.471,11.709 -747.133,11.709C-766.268,11.709 -781.576,22.012 -781.576,39.969C-781.576,45.563 -780.397,50.274 -777.749,54.1C-772.744,61.459 -765.679,65.286 -750.371,72.646L-728.883,82.948C-698.268,97.962 -683.549,112.092 -683.549,137.115" style="fill:white;fill-rule:nonzero;"/>
            </g>
        </g>
    </g>
</svg>
